<?xml version="1.0" encoding="UTF-8"?>
<svg version="1.1" xmlns="http://www.w3.org/2000/svg" width="512" height="512">
<path d="M0 0 C3.03281982 1.86928517 5.6508934 3.84409073 8.20507812 6.32763672 C10.34655401 8.39800533 12.53304232 10.41070742 14.73554993 12.41572571 C22.66829404 19.65240248 30.24858818 27.2098609 37.796875 34.84375 C65.73026404 63.08928546 90.67335468 75.84760055 130.484375 80.53125 C130.484375 94.72125 130.484375 108.91125 130.484375 123.53125 C109.58771463 123.53125 109.58771463 123.53125 102.734375 122.28125 C101.94764404 122.14630127 101.16091309 122.01135254 100.3503418 121.87231445 C93.23609942 120.59558463 86.34298026 118.82003795 79.484375 116.53125 C78.85466797 116.32129395 78.22496094 116.11133789 77.57617188 115.89501953 C62.87525698 110.90901958 49.72609405 104.13514795 37.484375 94.53125 C36.68644531 93.93699219 35.88851562 93.34273438 35.06640625 92.73046875 C24.65580165 84.6763731 15.68354427 74.90615652 6.484375 65.53125 C2.52497736 68.87251977 -1.35630764 72.23327847 -5.015625 75.90625 C-5.7065625 76.59460938 -6.3975 77.28296875 -7.109375 77.9921875 C-8.96432146 79.94951737 -10.7111289 81.92600059 -12.45703125 83.9765625 C-17.95887173 90.3073055 -24.00453283 96.12539544 -29.953125 102.03125 C-31.1740619 103.24716114 -32.39476692 104.46330516 -33.61523438 105.6796875 C-36.57936513 108.63289966 -39.54661458 111.58294398 -42.515625 114.53125 C-38.67721526 119.38570369 -34.78835422 123.00510436 -29.80168152 126.6491394 C-14.61789271 137.86781765 2.50710002 151.68167192 5.9967947 171.18051529 C8.59748849 188.59563188 7.40697384 206.59289725 6.36544514 224.09352493 C5.90920278 231.90161324 5.69623487 239.7115165 5.49731922 247.52971554 C5.08461991 263.54839022 4.35503095 279.5299331 3.484375 295.53125 C-11.035625 295.53125 -25.555625 295.53125 -40.515625 295.53125 C-40.47783936 292.35274414 -40.44005371 289.17423828 -40.40112305 285.89941406 C-40.28546466 275.36621701 -40.24187957 264.8335942 -40.23321819 254.29979324 C-40.22577698 247.91629256 -40.19450195 241.53480902 -40.10766602 235.15185547 C-40.02466354 228.98489862 -40.00569585 222.82068595 -40.03003883 216.65325165 C-40.02825481 214.30736321 -40.0038785 211.96137364 -39.95593834 209.61597443 C-39.22264803 196.26357373 -39.22264803 196.26357373 -44.36245728 184.47277832 C-47.45941626 181.35212919 -50.85791942 178.95538527 -54.515625 176.53125 C-55.93233766 175.32620783 -57.33483111 174.10350126 -58.703125 172.84375 C-59.31542969 172.31394531 -59.92773438 171.78414062 -60.55859375 171.23828125 C-62.9012165 169.19491569 -65.20835922 167.11444141 -67.515625 165.03125 C-70.49625221 162.34141569 -73.48807733 159.66814636 -76.515625 157.03125 C-80.41075311 153.63871907 -84.24345263 150.17930799 -88.078125 146.71875 C-90.20979981 144.80570851 -92.3558161 142.91237388 -94.515625 141.03125 C-95.15371094 140.47050781 -95.79179687 139.90976563 -96.44921875 139.33203125 C-97.95028702 138.02391693 -99.46522533 136.73166552 -100.98828125 135.44921875 C-111.97999217 125.98275279 -118.87798776 115.61382877 -120.390625 100.96875 C-120.94937797 88.81945457 -117.47321566 77.96993711 -109.34317017 68.79495239 C-105.34325172 64.49185529 -101.17688576 60.35687642 -97.00390625 56.22265625 C-95.4685408 54.68324066 -93.93406626 53.14293605 -92.4004364 51.60179138 C-89.19660926 48.38916089 -85.98229236 45.18752424 -82.76000977 41.9934082 C-78.6487241 37.91633319 -74.56500986 33.81286588 -70.48879719 29.70076084 C-67.32962691 26.51982224 -64.1561968 23.3534192 -60.97838402 20.19111443 C-59.4674468 18.68415417 -57.96088295 17.17279479 -56.45897865 15.65683174 C-41.48890368 0.57744032 -41.48890368 0.57744032 -31.515625 -2.46875 C-21.81629827 -5.70185891 -9.01129207 -4.48075296 0 0 Z " fill="#000000" transform="translate(274.515625,115.46875)"/>
<path d="M0 0 C2.79543195 2.21471901 5.4592254 4.5149442 8.1015625 6.91015625 C8.58866699 7.34811523 9.07577148 7.78607422 9.57763672 8.23730469 C28.54456742 25.50434022 41.53823834 50.33870052 43.32446289 76.12841797 C44.40144022 108.02834696 37.246291 136.12966756 15.09375 160.234375 C-0.07728581 176.22571731 -18.66476959 186.37775543 -39.8984375 191.91015625 C-41.29835938 192.27947266 -41.29835938 192.27947266 -42.7265625 192.65625 C-71.02719273 198.65565261 -99.98477775 191.30185725 -123.8984375 175.91015625 C-127.37175803 173.39067409 -130.64555213 170.70569394 -133.8984375 167.91015625 C-134.89037109 167.13478516 -134.89037109 167.13478516 -135.90234375 166.34375 C-156.95359213 149.37516797 -167.75143192 122.24439355 -170.6875 96.06445312 C-173.26990126 69.69048473 -165.13105988 42.20589322 -148.7734375 21.41015625 C-147.4897472 19.90332448 -146.19868115 18.4027276 -144.8984375 16.91015625 C-144.3828125 16.25144531 -143.8671875 15.59273438 -143.3359375 14.9140625 C-109.13356411 -27.58238644 -42.4254521 -30.58978016 0 0 Z M-113.8984375 31.91015625 C-114.48496094 32.40515625 -115.07148438 32.90015625 -115.67578125 33.41015625 C-129.9072523 46.31852001 -136.48260717 65.39420743 -138.18359375 84.03515625 C-138.80419533 103.89440692 -131.49756817 122.18210407 -118.5859375 137.09765625 C-104.41114471 152.12721041 -86.7047469 160.5321876 -65.9675293 161.30859375 C-45.62077928 161.63378404 -26.80923589 154.69125613 -11.80078125 140.81640625 C2.04226792 127.30479119 9.95165252 109.51804265 10.50219727 90.27490234 C10.75583252 68.41523896 4.41401636 49.84811885 -10.8984375 33.91015625 C-25.04098274 20.10541066 -43.7353019 12.66341459 -63.3984375 12.41015625 C-82.00647331 12.64982505 -100.00433923 19.37936199 -113.8984375 31.91015625 Z " fill="#000000" transform="translate(468.8984375,281.08984375)"/>
<path d="M0 0 C0.73347656 0.63035156 1.46695313 1.26070313 2.22265625 1.91015625 C2.88394531 2.42707031 3.54523438 2.94398438 4.2265625 3.4765625 C25.27781088 20.44514453 36.07565067 47.57591895 39.01171875 73.75585938 C41.59412001 100.12982777 33.45527863 127.61441928 17.09765625 148.41015625 C15.81396595 149.91698802 14.5228999 151.4175849 13.22265625 152.91015625 C12.70703125 153.56886719 12.19140625 154.22757813 11.66015625 154.90625 C-4.24081918 174.66321197 -30.99283898 187.0023251 -55.77734375 189.91015625 C-84.20396483 192.1660836 -111.82258748 185.54927547 -134.40234375 167.66015625 C-136.21473821 166.10059214 -138.00582155 164.51599652 -139.77734375 162.91015625 C-140.50800049 162.25321777 -140.50800049 162.25321777 -141.25341797 161.58300781 C-160.22034867 144.31597228 -173.21401959 119.48161198 -175.00024414 93.69189453 C-176.07722147 61.79196554 -168.92207225 33.69064494 -146.76953125 9.5859375 C-131.59849544 -6.40540481 -113.01101166 -16.55744293 -91.77734375 -22.08984375 C-90.8440625 -22.33605469 -89.91078125 -22.58226562 -88.94921875 -22.8359375 C-57.95069969 -29.40726098 -24.0553262 -20.30034846 0 0 Z M-125.3359375 34.75390625 C-139.62271292 52.67862954 -143.40159843 72.41325049 -141.77734375 94.91015625 C-139.65833959 112.62458254 -128.87186559 129.03602179 -115.71484375 140.59765625 C-99.1298596 153.48682221 -79.60410754 158.89576812 -58.77734375 156.91015625 C-43.74304508 154.93619773 -29.02319242 148.05255004 -17.77734375 137.91015625 C-16.89755859 137.16765625 -16.89755859 137.16765625 -16 136.41015625 C-1.76852895 123.50179249 4.80682592 104.42610507 6.5078125 85.78515625 C7.12841408 65.92590558 -0.17821308 47.63820843 -13.08984375 32.72265625 C-27.26463654 17.69310209 -44.97103435 9.2881249 -65.70825195 8.51171875 C-89.01456571 8.13922747 -109.75536456 17.43687251 -125.3359375 34.75390625 Z " fill="#000000" transform="translate(174.77734375,285.08984375)"/>
<path d="M0 0 C11.03469684 9.40147795 16.19905178 20.26749423 17.37109375 34.56640625 C16.89536879 47.67527195 11.7226891 59.20995655 2.13671875 68.19140625 C-8.46540091 76.16292479 -19.90827304 78.91043002 -32.94140625 77.75390625 C-45.30285373 75.46956859 -55.14645748 69.26210262 -62.5078125 59.05859375 C-69.40251454 47.97446785 -70.99430887 35.06110726 -68.1875 22.3359375 C-66.43087748 17.34161857 -64.189701 12.95758181 -60.94140625 8.75390625 C-60.54566406 8.20347656 -60.14992188 7.65304688 -59.7421875 7.0859375 C-45.6048679 -11.26422232 -18.25425142 -13.36412168 0 0 Z " fill="#000000" transform="translate(356.94140625,45.24609375)"/>
</svg>
