<?xml version="1.0" encoding="UTF-8"?>
<svg version="1.1" xmlns="http://www.w3.org/2000/svg" width="512" height="512">
<path d="M0 0 C1.676863 -0.00407365 3.35372331 -0.00941996 5.03057861 -0.01593018 C9.55125868 -0.02951528 14.07173154 -0.02434182 18.59241486 -0.01479292 C23.34335349 -0.00715037 28.09427544 -0.01425461 32.84521484 -0.01895142 C40.82067012 -0.02439566 48.79604181 -0.01725241 56.77148438 -0.00292969 C65.96695086 0.01339424 75.16221772 0.00810479 84.35767937 -0.0084089 C92.27992895 -0.02206182 100.20211874 -0.02392488 108.1243763 -0.0160929 C112.84407951 -0.01143724 117.56368918 -0.01073309 122.28338623 -0.02070236 C126.72243251 -0.02942537 131.16122364 -0.02325363 135.60024261 -0.00601959 C137.22066577 -0.00208305 138.84111074 -0.00313965 140.46152496 -0.00980759 C158.51791226 -0.07720784 173.761538 3.74007756 187.44921875 16.30224609 C194.44325377 23.3145901 199.27217382 32.17895191 204.3515625 40.60302734 C207.3246747 45.51003891 210.40918478 50.34697348 213.5065918 55.17626953 C216.24379718 59.46451286 218.85703741 63.7929617 221.37109375 68.21630859 C227.76712864 79.25848558 232.07300691 86.38088335 244.51464844 90.47509766 C249.61559791 92.32012193 254.50651099 94.68130706 259.42254639 96.96554565 C261.2336074 97.80012848 263.05541128 98.61127496 264.87744141 99.42163086 C279.13111997 105.90628678 291.18484323 114.35033126 297.0390625 129.38818359 C299.3052009 135.73466235 299.37761946 141.72735514 299.41015625 148.42724609 C299.41918472 149.58509613 299.4282132 150.74294617 299.43751526 151.93588257 C299.45198839 154.38170805 299.46089717 156.827572 299.46459961 159.2734375 C299.47645742 162.98033465 299.52564377 166.68554532 299.57617188 170.39208984 C299.73504928 193.5068979 299.73504928 193.5068979 294.0390625 203.38818359 C293.50555176 204.32082031 292.97204102 205.25345703 292.42236328 206.21435547 C286.41495789 216.11714222 276.82175595 221.82748072 266.0390625 225.38818359 C265.0490625 225.71818359 264.0590625 226.04818359 263.0390625 226.38818359 C261.33889406 226.46996474 259.63569953 226.49567861 257.93359375 226.48583984 C256.95068359 226.48261719 255.96777344 226.47939453 254.95507812 226.47607422 C253.93091797 226.46769531 252.90675781 226.45931641 251.8515625 226.45068359 C250.29791992 226.44391602 250.29791992 226.44391602 248.71289062 226.43701172 C246.15488984 226.4252237 243.59700517 226.40876875 241.0390625 226.38818359 C240.93166748 226.96753662 240.82427246 227.54688965 240.71362305 228.14379883 C237.8353567 242.46712836 228.87716899 253.23960051 217.01806641 261.29931641 C212.23157024 264.41706283 207.48879598 266.71347772 202.0390625 268.38818359 C201.03939453 268.72269531 201.03939453 268.72269531 200.01953125 269.06396484 C184.99628655 273.28655943 168.49602679 270.37997327 154.984375 263.16552734 C142.2388702 255.47427445 132.07407736 244.00453114 128.0390625 229.38818359 C128.0390625 228.39818359 128.0390625 227.40818359 128.0390625 226.38818359 C69.9590625 226.38818359 11.8790625 226.38818359 -47.9609375 226.38818359 C-48.6209375 229.35818359 -49.2809375 232.32818359 -49.9609375 235.38818359 C-57.00148821 250.52173848 -68.43854381 261.57585219 -84.1796875 267.45849609 C-85.0975 267.76529297 -86.0153125 268.07208984 -86.9609375 268.38818359 C-88.02828125 268.75556641 -88.02828125 268.75556641 -89.1171875 269.13037109 C-104.05409212 273.32419431 -120.60244802 270.32739338 -134.015625 263.16552734 C-146.7611298 255.47427445 -156.92592264 244.00453114 -160.9609375 229.38818359 C-160.9609375 228.39818359 -160.9609375 227.40818359 -160.9609375 226.38818359 C-161.98832031 226.43458984 -163.01570313 226.48099609 -164.07421875 226.52880859 C-178.3327157 226.98091149 -188.79414811 223.60534631 -199.6484375 214.01318359 C-200.4115625 213.14693359 -201.1746875 212.28068359 -201.9609375 211.38818359 C-202.44175781 210.84935547 -202.92257813 210.31052734 -203.41796875 209.75537109 C-213.5792838 197.45889364 -213.73345393 184.36056855 -213.55786133 169.1315918 C-213.52347086 165.82888688 -213.53726876 162.52885481 -213.55664062 159.22607422 C-213.54506249 141.94089965 -211.31802934 129.48840142 -199.4609375 116.26318359 C-189.43207191 106.88386974 -175.77345888 103.5186052 -162.85546875 100.11083984 C-161.15598249 99.65121368 -159.45682521 99.19036954 -157.75798035 98.7283783 C-154.23155026 97.77254386 -150.70276368 96.82624915 -147.17163086 95.88793945 C-142.64438621 94.68487675 -138.12180033 93.46531769 -133.60062122 92.23967838 C-129.27033787 91.06639515 -124.93804486 89.90062314 -120.60546875 88.73583984 C-119.78206308 88.51391527 -118.95865742 88.2919907 -118.11030006 88.06334114 C-115.79051623 87.43969773 -113.4693886 86.82136228 -111.14770508 86.20483398 C-110.46047867 86.01946579 -109.77325226 85.8340976 -109.06520081 85.64311218 C-106.26526975 84.90485765 -103.87235649 84.38818359 -100.9609375 84.38818359 C-100.68185547 83.79900146 -100.40277344 83.20981934 -100.11523438 82.6027832 C-99.0417671 80.54326085 -97.89041399 78.80303475 -96.4921875 76.95458984 C-96.00886963 76.31271729 -95.52555176 75.67084473 -95.02758789 75.00952148 C-94.51059326 74.33010498 -93.99359863 73.65068848 -93.4609375 72.95068359 C-92.92267334 72.238396 -92.38440918 71.5261084 -91.82983398 70.79223633 C-87.77811894 65.43918816 -83.69237043 60.1125277 -79.58984375 54.79833984 C-77.09674433 51.56853386 -74.61753533 48.32822721 -72.14038086 45.08618164 C-70.47754981 42.90992522 -68.81300919 40.73498376 -67.1484375 38.56005859 C-65.12051824 35.9091039 -63.09973701 33.25300182 -61.0859375 30.59130859 C-60.21094113 29.44026417 -59.33594134 28.28922234 -58.4609375 27.13818359 C-57.33171875 25.64544922 -57.33171875 25.64544922 -56.1796875 24.12255859 C-53.9252337 21.34418244 -51.53455746 18.87121213 -48.9609375 16.38818359 C-48.36152344 15.79134766 -47.76210937 15.19451172 -47.14453125 14.57958984 C-33.72345646 2.05925833 -17.57607873 -0.0723248 0 0 Z M-39.0859375 38.07568359 C-43.87003569 44.14940825 -48.47404839 50.36426611 -53.09570312 56.56201172 C-57.92183899 63.03047441 -62.83388123 69.42477849 -67.81103516 75.77758789 C-70.75879377 79.5434229 -73.67869863 83.32592056 -76.55078125 87.14990234 C-77.1339209 87.92374268 -77.71706055 88.69758301 -78.31787109 89.49487305 C-79.42111264 90.96212429 -80.51944227 92.43308736 -81.61181641 93.90844727 C-82.10987793 94.56949463 -82.60793945 95.23054199 -83.12109375 95.91162109 C-83.55043213 96.48831543 -83.97977051 97.06500977 -84.42211914 97.65917969 C-88.46009965 102.19622205 -92.54161966 104.20320702 -98.328125 105.72802734 C-99.42532616 106.03279495 -99.42532616 106.03279495 -100.54469299 106.34371948 C-102.13636959 106.78401175 -103.72961034 107.21867978 -105.32418823 107.64834595 C-107.8758731 108.33645294 -110.42270133 109.04050986 -112.96899414 109.74829102 C-121.79432491 112.19341152 -130.63672804 114.57288457 -139.48693848 116.92619324 C-143.75114452 118.0628566 -148.01182009 119.21244536 -152.27227783 120.36306763 C-155.35165501 121.1881488 -158.43600455 121.99235318 -161.52099609 122.79614258 C-163.43744492 123.31149535 -165.35363624 123.82780697 -167.26953125 124.34521484 C-168.13260391 124.56370087 -168.99567657 124.78218689 -169.88490295 125.0072937 C-177.99906245 127.24217691 -183.97716196 131.50121695 -188.953125 138.28662109 C-192.66012134 146.01671423 -192.26966151 154.22822156 -192.22167969 162.59643555 C-192.21097929 164.81701067 -192.22160616 167.03677401 -192.234375 169.25732422 C-192.24711752 180.40742324 -192.06121633 189.93811999 -183.9609375 198.38818359 C-178.92235536 202.69019335 -174.90278263 204.52867589 -168.2734375 204.45068359 C-167.27957031 204.44166016 -166.28570312 204.43263672 -165.26171875 204.42333984 C-164.50246094 204.41173828 -163.74320313 204.40013672 -162.9609375 204.38818359 C-162.68121094 203.37240234 -162.40148437 202.35662109 -162.11328125 201.31005859 C-157.24399834 184.31936931 -149.44188545 170.65415244 -133.9609375 161.38818359 C-119.66999646 153.7690359 -102.6324791 151.49082433 -86.8984375 156.01318359 C-72.00793681 161.4781116 -60.32628732 170.10842374 -52.9609375 184.38818359 C-50.08136354 190.94380942 -47.92904593 197.49980408 -45.9609375 204.38818359 C10.7990625 204.38818359 67.5590625 204.38818359 126.0390625 204.38818359 C127.51281409 199.97245835 127.51281409 199.97245835 128.8984375 195.52880859 C133.83241435 179.51502407 142.96413351 167.82587493 157.80859375 159.91162109 C171.34494413 153.43689126 187.57404471 151.83760962 202.1015625 156.01318359 C219.10398857 162.25320442 230.51352953 172.51864051 238.2890625 188.88818359 C240.3982016 193.89738896 241.73936344 199.12046391 243.0390625 204.38818359 C256.32248697 205.5000709 256.32248697 205.5000709 268.0390625 200.38818359 C273.72093272 195.09906938 277.10037849 189.23527323 277.44311523 181.40600586 C277.46946912 179.50569108 277.47842673 177.6050786 277.47265625 175.70458984 C277.4778981 174.69025375 277.48313995 173.67591766 277.48854065 172.63084412 C277.49494124 170.49357007 277.4936494 168.3562607 277.48510742 166.21899414 C277.47659784 162.96420048 277.50538697 159.71116359 277.53710938 156.45654297 C277.53872171 154.37255912 277.53814325 152.28857218 277.53515625 150.20458984 C277.55200722 148.7573629 277.55200722 148.7573629 277.56919861 147.28089905 C277.49552696 140.07329646 276.24650702 134.91752054 271.32948303 129.5070343 C266.57444295 125.04860345 261.42154181 122.27279172 255.5 119.65380859 C254.61551178 119.24910339 253.73102356 118.84439819 252.81973267 118.4274292 C250.02354802 117.15131601 247.21926195 115.89433683 244.4140625 114.63818359 C242.52545397 113.78140496 240.63742732 112.92334247 238.75 112.06396484 C236.09028551 110.85312629 233.42992579 109.64412453 230.76473999 108.44537354 C227.33091932 106.90009113 223.93980986 105.3375402 220.58447266 103.62548828 C218.21097113 102.24245721 218.21097113 102.24245721 216.0390625 102.38818359 C215.75708008 101.81052246 215.47509766 101.23286133 215.18457031 100.63769531 C213.24079625 96.82057379 210.99311992 93.18436986 208.7890625 89.51318359 C208.26183594 88.63476807 207.73460937 87.75635254 207.19140625 86.85131836 C202.10284565 78.41929339 196.82708346 70.11206613 191.51171875 61.82177734 C189.20517932 58.22357583 186.92175354 54.61245612 184.66015625 50.98583984 C184.12326172 50.12676025 183.58636719 49.26768066 183.03320312 48.38256836 C182.02970937 46.7745546 181.02945712 45.16451117 180.03320312 43.55200195 C176.0227768 37.14059672 172.20353378 31.72301093 165.6640625 27.63818359 C164.76945312 27.06583984 163.87484375 26.49349609 162.953125 25.90380859 C157.39331639 23.01211189 152.1582984 22.13799549 145.93806458 22.12075806 C145.25859715 22.11622694 144.57912972 22.11169583 143.87907237 22.10702741 C141.62088959 22.0944502 139.36295007 22.09599942 137.10473633 22.09765625 C135.47787163 22.0916667 133.85100977 22.08486018 132.22415161 22.07730103 C127.81686088 22.05967445 123.40964787 22.05494698 119.0023253 22.05366945 C116.24413835 22.05224508 113.48597099 22.04797001 110.72778893 22.04267502 C101.09186938 22.02418384 91.45600506 22.01600302 81.82006836 22.01757812 C72.86040902 22.01877838 63.90099103 21.99769653 54.94139272 21.9660908 C47.23156224 21.93987012 39.52181029 21.92921329 31.8119356 21.93048894 C27.21506583 21.930997 22.61841053 21.92540133 18.02158546 21.90413284 C13.69337051 21.88465328 9.36557242 21.8846918 5.03734207 21.89916611 C3.45722654 21.90124351 1.87708425 21.89661771 0.29701424 21.88444519 C-16.09295765 21.76645407 -28.2547579 25.20735475 -39.0859375 38.07568359 Z M-128.7109375 183.13818359 C-136.40872321 190.8359693 -141.10452659 200.44327039 -141.4609375 211.32568359 C-141.06281583 222.80900541 -136.99750885 231.2226833 -128.9609375 239.38818359 C-121.12611479 246.30383716 -111.80119813 248.77227065 -101.4609375 248.45068359 C-92.21310777 247.44041648 -83.45792658 243.03986289 -76.9609375 236.38818359 C-69.91889929 227.50304403 -67.28569842 219.30289258 -67.54296875 207.95849609 C-68.21679726 202.20261521 -70.23553373 197.46046283 -72.9609375 192.38818359 C-73.321875 191.71013672 -73.6828125 191.03208984 -74.0546875 190.33349609 C-78.72496729 182.82768929 -87.48810323 177.50639216 -95.9609375 175.38818359 C-108.09913477 172.71328457 -118.52661529 176.65725128 -128.7109375 183.13818359 Z M160.2890625 183.13818359 C152.59127679 190.8359693 147.89547341 200.44327039 147.5390625 211.32568359 C147.93718417 222.80900541 152.00249115 231.2226833 160.0390625 239.38818359 C167.94943048 246.37051958 177.2944225 248.81259795 187.7265625 248.32568359 C198.14049333 247.14651383 207.10513083 242.36479799 213.83203125 234.21630859 C215.38146549 231.99736573 216.74178269 229.76237196 218.0390625 227.38818359 C218.379375 226.78619141 218.7196875 226.18419922 219.0703125 225.56396484 C222.55106967 218.13512662 222.25667219 208.73750545 220.08984375 200.99755859 C218.89927496 198.00799153 217.57752038 195.2129632 216.0390625 192.38818359 C215.678125 191.71142578 215.3171875 191.03466797 214.9453125 190.33740234 C210.28282412 182.8274657 201.50988929 177.50589029 193.0390625 175.38818359 C180.90086523 172.71328457 170.47338471 176.65725128 160.2890625 183.13818359 Z " fill="#000000" transform="translate(212.9609375,120.61181640625)"/>
</svg>
