<?xml version="1.0" encoding="UTF-8"?>
<svg version="1.1" xmlns="http://www.w3.org/2000/svg" width="820" height="820">
<path d="M0 0 C1.30340332 0.00644531 2.60680664 0.01289063 3.94970703 0.01953125 C21.88884632 0.35504856 36.94278246 4.60150066 52.4375 13.5 C53.22125 13.93183594 54.005 14.36367187 54.8125 14.80859375 C67.95540496 22.46645571 79.31239853 33.72929653 87.4375 46.5 C88.035625 47.42683594 88.63375 48.35367188 89.25 49.30859375 C93.81357058 56.71456066 96.73900582 64.2551543 99.4375 72.5 C99.73527344 73.27859375 100.03304688 74.0571875 100.33984375 74.859375 C109.15019097 98.17830396 105.46233137 129.15656769 95.55761719 151.48339844 C89.36676364 164.91298625 81.71483681 177.23612637 72.5390625 188.8203125 C70.38149847 191.50059816 70.38149847 191.50059816 68.4375 194.5 C67.7775 194.5 67.1175 194.5 66.4375 194.5 C66.16550781 195.08910156 65.89351562 195.67820312 65.61328125 196.28515625 C59.4425211 207.9091463 46.1070451 218.43426442 35.9609375 226.47265625 C33.65729666 228.32341414 31.48469785 230.24841539 29.3125 232.25 C22.39931908 238.45951786 14.8705723 243.93559575 7.4375 249.5 C6.76283691 250.0053125 6.08817383 250.510625 5.39306641 251.03125 C-6.07556949 259.59358725 -17.92360611 267.49727479 -29.98046875 275.203125 C-32.38744768 276.74243374 -34.78489963 278.29518643 -37.17578125 279.859375 C-43.19584166 283.78831693 -49.24702529 287.54112632 -55.6015625 290.9140625 C-58.51390237 292.47397013 -61.39068283 294.08557276 -64.26464844 295.71459961 C-67.6902141 297.6556718 -71.1255587 299.57915957 -74.5625 301.5 C-75.16545898 301.83789551 -75.76841797 302.17579102 -76.38964844 302.52392578 C-87.05918953 308.46889218 -98.10645706 313.48361771 -109.26220703 318.44384766 C-111.19330773 319.33048973 -113.08497876 320.30231659 -114.96484375 321.29296875 C-117.5625 322.5 -117.5625 322.5 -121.5625 322.5 C-114.62836446 332.57412144 -106.27308705 341.03212671 -97.5246582 349.5144043 C-96.62706787 350.39008057 -95.72947754 351.26575684 -94.8046875 352.16796875 C-93.58048096 353.34782349 -93.58048096 353.34782349 -92.33154297 354.55151367 C-90.5625 356.5 -90.5625 356.5 -90.5625 358.5 C-89.69625 358.87125 -89.69625 358.87125 -88.8125 359.25 C-86.23310021 360.68299988 -84.50128408 362.28424676 -82.5625 364.5 C-82.5625 365.16 -82.5625 365.82 -82.5625 366.5 C-81.2425 367.16 -79.9225 367.82 -78.5625 368.5 C-78.5625 369.16 -78.5625 369.82 -78.5625 370.5 C-77.2425 371.16 -75.9225 371.82 -74.5625 372.5 C-74.5625 373.16 -74.5625 373.82 -74.5625 374.5 C-73.2425 375.16 -71.9225 375.82 -70.5625 376.5 C-70.5625 377.16 -70.5625 377.82 -70.5625 378.5 C-69.2425 379.16 -67.9225 379.82 -66.5625 380.5 C-66.5625 381.16 -66.5625 381.82 -66.5625 382.5 C-65.2425 383.16 -63.9225 383.82 -62.5625 384.5 C-62.5625 385.16 -62.5625 385.82 -62.5625 386.5 C-61.2425 387.16 -59.9225 387.82 -58.5625 388.5 C-58.5625 389.16 -58.5625 389.82 -58.5625 390.5 C-57.5725 390.83 -56.5825 391.16 -55.5625 391.5 C-54.30173754 392.98705316 -53.04398153 394.4776234 -51.8359375 396.0078125 C-50.28813247 397.82149815 -48.47100382 399.08629346 -46.5625 400.5 C-46.5625 401.16 -46.5625 401.82 -46.5625 402.5 C-45.2425 403.16 -43.9225 403.82 -42.5625 404.5 C-42.5625 405.16 -42.5625 405.82 -42.5625 406.5 C-41.2425 407.16 -39.9225 407.82 -38.5625 408.5 C-38.5625 409.16 -38.5625 409.82 -38.5625 410.5 C-37.2425 411.16 -35.9225 411.82 -34.5625 412.5 C-34.5625 413.16 -34.5625 413.82 -34.5625 414.5 C-33.2425 415.16 -31.9225 415.82 -30.5625 416.5 C-30.5625 417.16 -30.5625 417.82 -30.5625 418.5 C-29.2425 419.16 -27.9225 419.82 -26.5625 420.5 C-26.5625 421.16 -26.5625 421.82 -26.5625 422.5 C-25.2425 423.16 -23.9225 423.82 -22.5625 424.5 C-22.5625 425.16 -22.5625 425.82 -22.5625 426.5 C-21.2425 427.16 -19.9225 427.82 -18.5625 428.5 C-18.5625 429.16 -18.5625 429.82 -18.5625 430.5 C-17.2425 431.16 -15.9225 431.82 -14.5625 432.5 C-14.5625 433.16 -14.5625 433.82 -14.5625 434.5 C-12.73056101 435.2419897 -12.73056101 435.2419897 -10.5625 435.5 C-8.85189523 434.53165343 -8.85189523 434.53165343 -7.35722351 432.90272522 C-6.74760773 432.30142792 -6.13799194 431.70013062 -5.50990295 431.08061218 C-4.85267746 430.40698135 -4.19545197 429.73335052 -3.51831055 429.03930664 C-2.81695984 428.34029236 -2.11560913 427.64127808 -1.39300537 426.92108154 C0.93377707 424.59592004 3.24219483 422.25337419 5.55078125 419.91015625 C7.1639519 418.29019659 8.77815831 416.67126774 10.39335632 415.05332947 C14.65492443 410.7783142 18.90084479 406.48806375 23.14416504 402.19494629 C26.59381877 398.71006398 30.05445395 395.23620623 33.51577473 391.76291752 C37.65631893 387.60751328 41.79168402 383.44697334 45.92578125 379.28515625 C47.10119193 378.10237941 47.10119193 378.10237941 48.30034828 376.89570808 C50.53803036 374.64159624 52.77217353 372.38403928 55.00512695 370.12524414 C55.65627975 369.46983139 56.30743256 368.81441864 56.97831726 368.1391449 C60.77140498 364.29327669 64.39105736 360.34051955 67.91195965 356.24361324 C69.93996839 353.92570477 72.10505812 351.77133623 74.3125 349.625 C77.2651549 346.84607083 77.2651549 346.84607083 79.4375 343.5 C80.0975 343.5 80.7575 343.5 81.4375 343.5 C81.80875 342.6646875 81.80875 342.6646875 82.1875 341.8125 C83.66674818 339.07589087 85.37217439 336.82349131 87.4375 334.5 C88.0975 334.5 88.7575 334.5 89.4375 334.5 C89.67726563 333.98050781 89.91703125 333.46101563 90.1640625 332.92578125 C91.50399773 330.37332794 93.047253 327.99517438 94.61157227 325.57617188 C100.86088425 315.74802031 105.22077961 305.42178125 104.4375 293.5 C103.53280422 289.89896736 103.53280422 289.89896736 102.1875 286.375 C101.76984375 285.19679688 101.3521875 284.01859375 100.921875 282.8046875 C97.97810239 276.25092006 93.83862048 272.48594541 87.4375 269.5 C84.08052786 268.35659278 80.68079929 267.35615931 77.24902344 266.46289062 C71.51400194 264.87215474 67.69046055 262.40957205 63.9765625 257.61328125 C60.98218474 251.71410114 60.24248409 245.93617417 61.98046875 239.484375 C63.78049405 234.90972507 66.19364783 230.60639769 70.6953125 228.38671875 C82.88023748 224.44657919 95.41636924 229.48521274 106.4375 234.5625 C113.95402911 238.44744763 120.46164971 243.51422305 126.4375 249.5 C126.4375 250.16 126.4375 250.82 126.4375 251.5 C127.0975 251.5 127.7575 251.5 128.4375 251.5 C132.96172828 256.93798867 136.60626408 263.03049363 139.4375 269.5 C139.71335937 270.09941406 139.98921875 270.69882812 140.2734375 271.31640625 C147.47929202 288.40355632 145.60039337 310.35936778 139.02905273 327.38452148 C137.60670253 330.8111448 136.07069857 334.16912237 134.4375 337.5 C133.99792969 338.3971875 133.55835938 339.294375 133.10546875 340.21875 C128.41239417 348.72583383 121.67188039 356.09590311 115.4375 363.5 C114.89665771 364.14670654 114.35581543 364.79341309 113.79858398 365.4597168 C113.27594971 366.07886963 112.75331543 366.69802246 112.21484375 367.3359375 C111.75070068 367.88685059 111.28655762 368.43776367 110.80834961 369.00537109 C109.4375 370.5 109.4375 370.5 106.5 372.9375 C104.07587242 374.96585165 102.24487684 376.79313625 100.22584534 379.17430115 C96.57618608 383.39259708 92.71943629 387.34596581 88.76147461 391.27368164 C88.02881882 392.00487717 87.29616302 392.73607269 86.54130554 393.48942566 C84.96395332 395.06299779 83.38544783 396.63541459 81.80589104 398.20677376 C79.30190618 400.69789898 76.80114263 403.19221868 74.30116272 405.68736267 C68.99524992 410.98189531 63.68541628 416.27248486 58.375 421.5625 C52.2141738 427.69967513 46.0549932 433.83848305 39.90002632 439.98153496 C37.44377761 442.43133124 34.98452213 444.87808113 32.52513123 447.32472229 C31.01131568 448.83490339 29.49764143 450.34522615 27.98413086 451.85571289 C26.96700012 452.86509415 26.96700012 452.86509415 25.92932129 453.89486694 C22.35041049 457.47338205 18.95772053 461.12614319 15.7349329 465.02997494 C13.86338487 467.15048731 11.6741777 468.77947869 9.4375 470.5 C8.6125 471.325 7.7875 472.15 6.9375 473 C1.13711891 478.80038109 -3.01289363 481.783468 -11.3125 481.9375 C-17.90002794 481.82838981 -21.62003483 480.76703067 -26.5625 476.5 C-27.24957031 475.94570313 -27.93664062 475.39140625 -28.64453125 474.8203125 C-32.77667065 471.37047441 -36.12362352 467.64428704 -39.5625 463.5 C-41.29976193 461.95621504 -43.08465861 460.48166184 -44.875 459 C-47.39888489 456.75654676 -49.40329531 454.09104563 -51.5625 451.5 C-52.71096224 450.47914468 -53.87871922 449.47968065 -55.0625 448.5 C-58.32678178 445.79852543 -60.84768379 442.75777945 -63.5625 439.5 C-64.71096224 438.47914468 -65.87871922 437.47968065 -67.0625 436.5 C-70.32678178 433.79852543 -72.84768379 430.75777945 -75.5625 427.5 C-76.71096224 426.47914468 -77.87871922 425.47968065 -79.0625 424.5 C-81.36176074 422.596311 -83.06604059 420.89316903 -85 418.5625 C-87.73784189 415.29044506 -90.70010093 412.71424249 -93.98828125 410.015625 C-94.50777344 409.51546875 -95.02726562 409.0153125 -95.5625 408.5 C-95.5625 407.84 -95.5625 407.18 -95.5625 406.5 C-96.8825 405.84 -98.2025 405.18 -99.5625 404.5 C-99.5625 403.84 -99.5625 403.18 -99.5625 402.5 C-100.8825 401.84 -102.2025 401.18 -103.5625 400.5 C-103.5625 399.84 -103.5625 399.18 -103.5625 398.5 C-104.8825 397.84 -106.2025 397.18 -107.5625 396.5 C-107.5625 395.84 -107.5625 395.18 -107.5625 394.5 C-108.8825 393.84 -110.2025 393.18 -111.5625 392.5 C-111.5625 391.84 -111.5625 391.18 -111.5625 390.5 C-112.8825 389.84 -114.2025 389.18 -115.5625 388.5 C-115.5625 387.84 -115.5625 387.18 -115.5625 386.5 C-116.8825 385.84 -118.2025 385.18 -119.5625 384.5 C-119.5625 383.84 -119.5625 383.18 -119.5625 382.5 C-120.8825 381.84 -122.2025 381.18 -123.5625 380.5 C-123.5625 379.84 -123.5625 379.18 -123.5625 378.5 C-124.8825 377.84 -126.2025 377.18 -127.5625 376.5 C-127.5625 375.84 -127.5625 375.18 -127.5625 374.5 C-128.5525 374.17 -129.5425 373.84 -130.5625 373.5 C-132.10546875 371.96875 -132.10546875 371.96875 -133.75 370 C-137.09553861 366.03968292 -140.55254337 362.20154669 -144.05859375 358.3828125 C-145.5625 356.5 -145.5625 356.5 -145.5625 354.5 C-146.2225 354.5 -146.8825 354.5 -147.5625 354.5 C-149.17440201 352.59981552 -150.62496364 350.71562009 -152.0625 348.6875 C-152.50029785 348.07092529 -152.9380957 347.45435059 -153.38916016 346.8190918 C-171.32898329 320.82458889 -178.66140553 292.24804853 -173.32958984 260.87597656 C-170.58279236 246.59470467 -165.46697535 233.61406342 -159.92578125 220.22265625 C-155.04439683 208.4251501 -150.32374132 196.56889473 -145.8125 184.625 C-142.49846085 175.85436075 -139.05152213 167.13959701 -135.5625 158.4375 C-135.30315674 157.79058197 -135.04381348 157.14366394 -134.77661133 156.47714233 C-132.28887866 150.27420797 -129.79379214 144.07424256 -127.296875 137.875 C-123.54772085 128.55299794 -119.90990579 119.19658297 -116.3527832 109.79956055 C-114.27775372 104.33314029 -112.1295331 98.90974517 -109.84375 93.52734375 C-108.51448726 90.38655526 -107.21896806 87.23326166 -105.92724609 84.0769043 C-100.44133481 70.67989872 -100.44133481 70.67989872 -97.5625 64.5 C-97.14291016 63.58154297 -97.14291016 63.58154297 -96.71484375 62.64453125 C-90.57834397 49.76053821 -82.60175513 37.29567446 -71.54296875 28.140625 C-70.24275484 27.06352472 -68.97242063 25.94909078 -67.73828125 24.796875 C-49.50962083 7.82931687 -24.53326919 -0.12842963 0 0 Z M-45.3359375 58.2734375 C-47.15774942 60.29309325 -48.8648252 62.37509578 -50.5625 64.5 C-51.17738281 65.22058594 -51.79226563 65.94117188 -52.42578125 66.68359375 C-65.4222006 82.9616741 -71.61852385 104.93723175 -79.09408569 124.17306519 C-81.93191513 131.46778968 -84.83575506 138.73553618 -87.75 146 C-88.24825611 147.2433082 -88.74646605 148.4866349 -89.24462891 149.72998047 C-90.21470927 152.15050977 -91.18508065 154.57092247 -92.15576172 156.99121094 C-94.37813753 162.53442253 -96.59510307 168.0797954 -98.8125 173.625 C-99.63150742 175.6718762 -100.45051776 177.71875123 -101.26953125 179.765625 C-102.70677772 183.35844238 -104.14186123 186.95210589 -105.57421875 190.546875 C-108.90923553 198.91091203 -112.27537442 207.26107635 -115.68334961 215.59570312 C-117.56341947 220.19829245 -119.43265202 224.80525685 -121.30224609 229.41210938 C-122.40283482 232.10878629 -123.52020994 234.79754105 -124.64453125 237.484375 C-131.33403021 253.69449597 -135.68486652 269.86637484 -134.5625 287.5 C-127.44841245 284.45110534 -120.54947017 281.0398437 -113.64453125 277.55078125 C-111.19412844 276.31332498 -108.73766523 275.10466499 -106.26171875 273.91796875 C-87.59970005 264.91736144 -69.92518138 253.7675694 -52.5625 242.5 C-51.89428223 242.0673584 -51.22606445 241.6347168 -50.53759766 241.18896484 C-32.79827816 229.65951449 -16.01094664 216.79034489 0.4375 203.5 C1.27410156 202.83871094 2.11070312 202.17742187 2.97265625 201.49609375 C11.194432 194.92109488 18.82589937 187.76458785 26.4375 180.5 C27.24703125 179.73300781 28.0565625 178.96601563 28.890625 178.17578125 C36.81561062 170.48480111 43.27458205 161.63024881 49.4375 152.5 C49.86675781 151.8915625 50.29601562 151.283125 50.73828125 150.65625 C61.37731094 134.85365216 67.23593673 114.43474588 64.09619141 95.43457031 C60.32016763 76.4448108 51.53779026 59.99368018 35.375 48.75 C10.11677849 33.62320996 -24.36109432 37.29859432 -45.3359375 58.2734375 Z " fill="#0CB1A8" transform="translate(432.5625,156.5)"/>
<path d="M0 0 C0.99 0.66 1.98 1.32 3 2 C-23.4 28.4 -49.8 54.8 -77 82 C-77.99 81.67 -78.98 81.34 -80 81 C-77 78 -74 75 -71 72 C-70.26910156 71.2678125 -69.53820312 70.535625 -68.78515625 69.78125 C-66.39539492 67.39484037 -63.99939635 65.01500709 -61.6015625 62.63671875 C-59.94264302 60.98704484 -58.28379068 59.33730342 -56.625 57.6875 C-55.8 56.87087891 -54.975 56.05425781 -54.125 55.21289062 C-49.71156198 50.81696625 -45.45789656 46.36413866 -41.43701172 41.60473633 C-39.5100303 39.4528422 -37.25305137 37.8024411 -35 36 C-33.13679073 33.9054118 -31.33217247 31.77390357 -29.55078125 29.609375 C-28.78314453 28.81273437 -28.78314453 28.81273437 -28 28 C-27.34 28 -26.68 28 -26 28 C-25.67346436 27.18450684 -25.67346436 27.18450684 -25.34033203 26.35253906 C-23.54913222 23.20864082 -21.11723419 20.87052333 -18.5546875 18.359375 C-18.02481232 17.83232971 -17.49493713 17.30528442 -16.94900513 16.76226807 C-15.26232175 15.08674325 -13.56880436 13.41832278 -11.875 11.75 C-10.72740612 10.61244149 -9.58026539 9.47442564 -8.43359375 8.3359375 C-5.62761863 5.55196535 -2.81549536 2.7743424 0 0 Z " fill="#0EA29A" transform="translate(529,535)"/>
<path d="M0 0 C0.495 1.485 0.495 1.485 1 3 C-20.45 24.45 -41.9 45.9 -64 68 C-64.66 67.34 -65.32 66.68 -66 66 C-44.22 44.22 -22.44 22.44 0 0 Z " fill="#099C95" transform="translate(495,519)"/>
<path d="M0 0 C0.33 0 0.66 0 1 0 C5.01940977 16.29296459 4.31750149 36.04749552 -1 52 C-1.66 52 -2.32 52 -3 52 C-3.66 53.98 -4.32 55.96 -5 58 C-5.33 57.34 -5.66 56.68 -6 56 C-5.566875 54.7625 -5.13375 53.525 -4.6875 52.25 C-0.62555301 40.55599022 -0.74662961 28.39623896 -0.9375 16.1875 C-0.96518168 14.00931296 -0.98978417 11.83118966 -1.00868225 9.65290833 C-1.02637745 7.71148573 -1.05380145 5.77015895 -1.08178711 3.82885742 C-1 1 -1 1 0 0 Z " fill="#06A49C" transform="translate(534,242)"/>
<path d="M0 0 C7.41518833 0 12.58592359 4.21250748 18 9 C18 9.66 18 10.32 18 11 C18.5671875 11.20496094 19.134375 11.40992188 19.71875 11.62109375 C22.82482562 13.49856754 24.52138578 16.10298042 26.5 19.0625 C26.89364746 19.64233643 27.28729492 20.22217285 27.69287109 20.81958008 C30.62829825 25.23492632 33.60575529 29.83656831 35 35 C34.505 35.99 34.505 35.99 34 37 C31.65827675 34.84850077 30.75594544 33.49381276 29.3125 30.5 C23.20243896 17.90957118 13.97704768 8.89128843 1.87109375 2.12890625 C1.25363281 1.75636719 0.63617188 1.38382813 0 1 C0 0.67 0 0.34 0 0 Z " fill="#0AA69D" transform="translate(460,201)"/>
<path d="M0 0 C0.66 0 1.32 0 2 0 C-0.69216269 10.04661481 -4.74320126 19.52180827 -8.6875 29.125 C-9.39690677 30.8618067 -10.10589477 32.59878451 -10.81445312 34.3359375 C-12.53814355 38.55928132 -14.26749652 42.78026426 -16 47 C-17.14086914 45.40820312 -17.14086914 45.40820312 -18 43 C-17.20483398 39.98242188 -17.20483398 39.98242188 -15.74609375 36.46875 C-15.48876968 35.83698853 -15.23144562 35.20522705 -14.96632385 34.55432129 C-14.13777022 32.52993327 -13.28810318 30.51520843 -12.4375 28.5 C-11.8911651 27.17506094 -11.3462288 25.84954426 -10.80273438 24.5234375 C-9.47494542 21.29311587 -8.12781021 18.07130149 -6.77459717 14.8515625 C-6.01436228 13.03433096 -5.265127 11.21251029 -4.51611328 9.390625 C-4.06864746 8.30265625 -3.62118164 7.2146875 -3.16015625 6.09375 C-2.76578369 5.13146484 -2.37141113 4.16917969 -1.96508789 3.17773438 C-1 1 -1 1 0 0 Z " fill="#08A199" transform="translate(313,277)"/>
<path d="M0 0 C0.66 0.33 1.32 0.66 2 1 C2.16712866 4.92752358 2.02345747 8.20167546 1 12 C-0.6160889 18.54402195 -0.15866683 25.30954852 0 32 C0.9075 31.46375 1.815 30.9275 2.75 30.375 C6 29 6 29 8.375 29.8125 C8.91125 30.204375 9.4475 30.59625 10 31 C8.23494565 31.86604534 6.46271926 32.71748642 4.6875 33.5625 C3.70136719 34.03816406 2.71523438 34.51382813 1.69921875 35.00390625 C-1 36 -1 36 -4 35 C-4.66377644 22.83076518 -2.69201073 11.83763648 0 0 Z " fill="#08A29A" transform="translate(299,411)"/>
<path d="M0 0 C0.33 0 0.66 0 1 0 C0.99214478 1.61056274 0.99214478 1.61056274 0.98413086 3.25366211 C0.96589984 7.27367301 0.95450242 11.29368033 0.94506836 15.3137207 C0.94006925 17.04679989 0.93326776 18.77987493 0.92456055 20.51293945 C0.91229973 23.01775138 0.90672734 25.52250708 0.90234375 28.02734375 C0.89718246 28.79022202 0.89202118 29.55310028 0.88670349 30.33909607 C0.8862247 35.03047858 1.24974051 39.5139983 1.97999573 44.15138245 C1.98659714 44.76142624 1.99319855 45.37147003 2 46 C1.34 46.66 0.68 47.32 0 48 C-3.90933963 34.99213778 -6.79499083 14.43615651 -0.9375 1.6875 C-0.628125 1.130625 -0.31875 0.57375 0 0 Z " fill="#04A099" transform="translate(261,417)"/>
<path d="M0 0 C14.26471063 1.2184878 28.74578379 14.89207381 38 25 C37.8125 27.3125 37.8125 27.3125 37 29 C35.5 27.625 35.5 27.625 34 26 C34 25.34 34 24.68 34 24 C33.01 23.67 32.02 23.34 31 23 C31 22.34 31 21.68 31 21 C30.43023437 20.74476563 29.86046875 20.48953125 29.2734375 20.2265625 C26.74469189 18.86225645 24.80662728 17.24390255 22.625 15.375 C15.43964862 9.51551703 7.31894759 5.0570237 -1 1 C-0.67 0.67 -0.34 0.34 0 0 Z " fill="#09A9A2" transform="translate(472,165)"/>
<path d="M0 0 C5.34669848 4.30706267 7.47404665 9.36292331 9 16 C9.86773535 24.49416489 9.36280464 33.05575967 6 41 C5.01 41.495 5.01 41.495 4 42 C2.67386567 38.32019679 3.36919384 35.88621334 4.4375 32.1875 C6.60937461 24.65898397 6.40384228 19.19970673 3.5625 11.875 C2.04186419 7.91528167 0.68812963 4.19205408 0 0 Z " fill="#08A79F" transform="translate(531,431)"/>
<path d="M0 0 C5.62303757 4.67466337 10.79741554 9.67765667 15.9375 14.875 C16.71673828 15.65875 17.49597656 16.4425 18.29882812 17.25 C20.20154085 19.16438581 22.10186171 21.08108034 24 23 C23.67 23.66 23.34 24.32 23 25 C21.68 24.34 20.36 23.68 19 23 C19 22.34 19 21.68 19 21 C17.68 20.34 16.36 19.68 15 19 C15 18.34 15 17.68 15 17 C13.68 16.34 12.36 15.68 11 15 C11 14.34 11 13.68 11 13 C9.68 12.34 8.36 11.68 7 11 C7 10.34 7 9.68 7 9 C5.68 8.34 4.36 7.68 3 7 C3 6.34 3 5.68 3 5 C2.01 4.67 1.02 4.34 0 4 C0 2.68 0 1.36 0 0 Z " fill="#08A59E" transform="translate(310,534)"/>
<path d="M0 0 C0 0.33 0 0.66 0 1 C-1.01320313 1.18175781 -1.01320313 1.18175781 -2.046875 1.3671875 C-2.93890625 1.53476562 -3.8309375 1.70234375 -4.75 1.875 C-6.07257813 2.11863281 -6.07257813 2.11863281 -7.421875 2.3671875 C-10.97373745 3.14165208 -10.97373745 3.14165208 -14 5 C-14.78841542 7.78298876 -15.33350841 10.28795726 -15.75 13.125 C-15.87503906 13.87910156 -16.00007813 14.63320313 -16.12890625 15.41015625 C-16.43510476 17.27090102 -16.71964088 19.13518704 -17 21 C-17.99 21.33 -18.98 21.66 -20 22 C-20.45553735 14.5595566 -19.34808128 9.52212191 -15.125 3.1875 C-10.35022472 -1.72770985 -6.32239347 -1.07159211 0 0 Z " fill="#06A39C" transform="translate(514,385)"/>
<path d="M0 0 C3.60846324 3.56916962 7.11984266 7.20835245 10.5625 10.9375 C11.26536133 11.68676758 11.26536133 11.68676758 11.98242188 12.45117188 C15.04734222 15.77328833 17.58079762 19.18050636 20 23 C13.59604516 22.02797114 9.53211188 15.76192866 5.5 11.125 C4 9 4 9 4 7 C3.34 7 2.68 7 2 7 C0.3125 4.625 0.3125 4.625 -1 2 C-0.67 1.34 -0.34 0.68 0 0 Z " fill="#0BA19A" transform="translate(283,504)"/>
<path d="M0 0 C1.20998859 3.62996576 0.70921633 4.31039793 -0.80078125 7.7109375 C-1.20103516 8.62617188 -1.60128906 9.54140625 -2.01367188 10.484375 C-2.44228516 11.43828125 -2.87089844 12.3921875 -3.3125 13.375 C-4.14225834 15.25766654 -4.97169574 17.14047456 -5.80078125 19.0234375 C-6.17372314 19.85794434 -6.54666504 20.69245117 -6.9309082 21.55224609 C-8.00685701 24.01569956 -9.01454918 26.49913612 -10 29 C-10.33 29 -10.66 29 -11 29 C-11.6573064 22.22035397 -9.36603922 17.24609373 -6.625 11.125 C-6.2125 10.16335937 -5.8 9.20171875 -5.375 8.2109375 C-2.2786788 1.1393394 -2.2786788 1.1393394 0 0 Z " fill="#08AAA2" transform="translate(336,222)"/>
<path d="M0 0 C0.33 1.32 0.66 2.64 1 4 C1.66 4 2.32 4 3 4 C4.7108173 11.91253 4.41031837 20.06695918 3 28 C2.34 28 1.68 28 1 28 C1 29.65 1 31.3 1 33 C0.67 33 0.34 33 0 33 C0 22.11 0 11.22 0 0 Z " fill="#06A19B" transform="translate(573,437)"/>
<path d="M0 0 C0.66 0.33 1.32 0.66 2 1 C2 3 2 3 0.6015625 4.41015625 C-0.05070312 4.95542969 -0.70296875 5.50070312 -1.375 6.0625 C-5.55108294 9.60067329 -9.58577111 13.26988866 -13.60546875 16.984375 C-15.95584405 18.96283121 -18.32524074 20.49871416 -21 22 C-19.5947928 17.46134225 -17.42657701 15.22150029 -13.875 12.125 C-12.89660156 11.26390625 -11.91820312 10.4028125 -10.91015625 9.515625 C-9.94980469 8.68546875 -8.98945313 7.8553125 -8 7 C-6.43740329 5.62510991 -4.8748891 4.25012601 -3.3125 2.875 C-2.20932507 1.91552521 -1.10558569 0.95669592 0 0 Z " fill="#09A49E" transform="translate(456,339)"/>
<path d="M0 0 C0.47566406 0.42152344 0.95132812 0.84304688 1.44140625 1.27734375 C8.53490038 6.82934191 15.29341669 6.97705775 24 7 C24 7.99 24 8.98 24 10 C9.66319965 10.906118 9.66319965 10.906118 3.453125 6.2890625 C2.26397115 5.23416796 1.12403056 4.12403056 0 3 C0 2.01 0 1.02 0 0 Z " fill="#06A49B" transform="translate(404,628)"/>
<path d="M0 0 C0.66 0.99 1.32 1.98 2 3 C0.87760115 4.12239885 -0.24620587 5.24340807 -1.375 6.359375 C-2.58299947 7.57898985 -3.76690387 8.82256625 -4.9375 10.078125 C-5.618125 10.79484375 -6.29875 11.5115625 -7 12.25 C-7.639375 12.93578125 -8.27875 13.6215625 -8.9375 14.328125 C-11.30574262 16.24783682 -13.00566464 16.64650208 -16 17 C-13.24521118 12.29390243 -10.07178131 9.1182339 -5.90625 5.61328125 C-3.8206381 3.84820397 -1.89178027 1.97060445 0 0 Z " fill="#0AAAA3" transform="translate(367,179)"/>
<path d="M0 0 C0.66 0.33 1.32 0.66 2 1 C2 1.66 2 2.32 2 3 C-0.75338543 5.43712102 -3.82162661 7.48963959 -6.8125 9.625 C-7.64587891 10.23601562 -8.47925781 10.84703125 -9.33789062 11.4765625 C-10.14033203 12.0540625 -10.94277344 12.6315625 -11.76953125 13.2265625 C-12.50792236 13.75846191 -13.24631348 14.29036133 -14.00708008 14.83837891 C-16 16 -16 16 -19 16 C-19 15.34 -19 14.68 -19 14 C-17.68652344 12.81079102 -17.68652344 12.81079102 -15.859375 11.50390625 C-15.20066406 11.02759766 -14.54195313 10.55128906 -13.86328125 10.06054688 C-13.16589844 9.56619141 -12.46851563 9.07183594 -11.75 8.5625 C-10.39058183 7.58469544 -9.03120565 6.60683248 -7.671875 5.62890625 C-7.03314453 5.17273926 -6.39441406 4.71657227 -5.73632812 4.24658203 C-3.8030289 2.85858627 -1.8945346 1.44043224 0 0 Z " fill="#08A39B" transform="translate(418,371)"/>
<path d="M0 0 C4.97094431 0.40503991 7.75763018 2.97162343 11.25 6.25 C12.06210937 6.96736328 12.06210937 6.96736328 12.890625 7.69921875 C16.04520665 10.60932032 17.71463531 12.65611533 18 17 C16 15.625 16 15.625 14 14 C14 13.34 14 12.68 14 12 C13.01 11.67 12.02 11.34 11 11 C11 10.34 11 9.68 11 9 C10.12601562 8.59974609 10.12601562 8.59974609 9.234375 8.19140625 C6.95523863 6.97613248 5.19537168 5.62930828 3.25 3.9375 C2.63640625 3.41027344 2.0228125 2.88304687 1.390625 2.33984375 C0.93171875 1.89769531 0.4728125 1.45554688 0 1 C0 0.67 0 0.34 0 0 Z " fill="#09A098" transform="translate(492,177)"/>
<path d="M0 0 C0.33 0 0.66 0 1 0 C0.68454099 7.88647528 -2.24441819 15.11476668 -6 22 C-6.99 22.33 -7.98 22.66 -9 23 C-2.35 2.35 -2.35 2.35 0 0 Z " fill="#08A49C" transform="translate(318,364)"/>
<path d="M0 0 C2.45695635 7.37086904 -2.24798882 15.07776763 -5.46484375 21.59375 C-7 24 -7 24 -10 25 C-8.52320478 20.03259791 -6.41112605 15.46034214 -4.2421875 10.76953125 C-2.65521698 7.23128566 -1.30828037 3.64941367 0 0 Z " fill="#07A098" transform="translate(571,475)"/>
<path d="M0 0 C8.25 0 16.5 0 25 0 C24.67 0.99 24.34 1.98 24 3 C16.08 2.67 8.16 2.34 0 2 C0 1.34 0 0.68 0 0 Z " fill="#09A39A" transform="translate(422,157)"/>
<path d="M0 0 C0.66 0.33 1.32 0.66 2 1 C-0.05764921 7.45353615 -2.42383482 13.7361263 -5 20 C-6.17578125 18.48046875 -6.17578125 18.48046875 -7 16 C-6.18958411 13.27618342 -5.32367835 10.89160031 -4.1875 8.3125 C-3.90068359 7.62349609 -3.61386719 6.93449219 -3.31835938 6.22460938 C-1.1979831 1.1979831 -1.1979831 1.1979831 0 0 Z " fill="#09A8A1" transform="translate(294,324)"/>
<path d="M0 0 C0.66 0.99 1.32 1.98 2 3 C1.36191406 3.83144531 0.72382813 4.66289062 0.06640625 5.51953125 C-0.76844067 6.61702664 -1.60306447 7.71469179 -2.4375 8.8125 C-2.85837891 9.35970703 -3.27925781 9.90691406 -3.71289062 10.47070312 C-5.61144475 12.97679457 -6.99806673 14.99420019 -8 18 C-8.99 18 -9.98 18 -11 18 C-9.66629344 13.11951338 -7.47529792 9.54881455 -4.375 5.625 C-3.74464844 4.80708984 -3.74464844 4.80708984 -3.1015625 3.97265625 C-2.07499307 2.64278222 -1.03850813 1.32057207 0 0 Z " fill="#089F97" transform="translate(382,217)"/>
<path d="M0 0 C3 1 3 1 4.0625 2.85546875 C4.371875 3.62503906 4.68125 4.39460938 5 5.1875 C6.16378974 8.00297595 7.34402871 10.66348394 8.75 13.375 C10 16 10 16 10 19 C7 18 7 18 5.4296875 15.48828125 C4.91664063 14.44027344 4.40359375 13.39226562 3.875 12.3125 C3.35679687 11.27738281 2.83859375 10.24226563 2.3046875 9.17578125 C1.02944256 6.07166706 0.4080898 3.31946218 0 0 Z " fill="#0AA49C" transform="translate(264,472)"/>
<path d="M0 0 C-1.33358515 4.00075546 -3.85916174 5.0777441 -7.3125 7.125 C-7.89451172 7.48464844 -8.47652344 7.84429687 -9.07617188 8.21484375 C-11.98748002 9.97547631 -14.6184206 11.4489278 -18 12 C-16.52922378 7.46510665 -12.94703573 5.88995913 -9 3.75 C-8.03707031 3.20472656 -8.03707031 3.20472656 -7.0546875 2.6484375 C-2.29546523 0 -2.29546523 0 0 0 Z " fill="#0B9D96" transform="translate(368,407)"/>
<path d="M0 0 C0.33 0.99 0.66 1.98 1 3 C-1.05927956 3.98592155 -3.12256688 4.96347494 -5.1875 5.9375 C-6.33605469 6.48277344 -7.48460937 7.02804688 -8.66796875 7.58984375 C-11.51466736 8.79460131 -13.96027845 9.54776271 -17 10 C-16 7 -16 7 -13.1640625 5.4296875 C-11.99617188 4.91664063 -10.82828125 4.40359375 -9.625 3.875 C-8.46226562 3.35679687 -7.29953125 2.83859375 -6.1015625 2.3046875 C-3 1 -3 1 0 0 Z " fill="#07AAA1" transform="translate(398,162)"/>
<path d="M0 0 C0.33 0.99 0.66 1.98 1 3 C-4.28 6.63 -9.56 10.26 -15 14 C-15.33 13.01 -15.66 12.02 -16 11 C-10.70460564 7.27438657 -5.40931904 3.55876253 0 0 Z " fill="#09A29B" transform="translate(386,394)"/>
<path d="M0 0 C3 1 3 1 5 4.4375 C7.21306183 9.12748872 8.6486603 14.0041381 10 19 C9.01 19 8.02 19 7 19 C6.66226563 18.09636719 6.32453125 17.19273437 5.9765625 16.26171875 C5.53054688 15.08222656 5.08453125 13.90273438 4.625 12.6875 C4.18414063 11.51574219 3.74328125 10.34398437 3.2890625 9.13671875 C2.08510352 5.91446407 2.08510352 5.91446407 0 3 C0 2.01 0 1.02 0 0 Z " fill="#04B1A5" transform="translate(565,417)"/>
<path d="M0 0 C1.765625 0.14453125 1.765625 0.14453125 4 1 C5.921875 3.51171875 5.921875 3.51171875 7.75 6.6875 C8.67039062 8.24017578 8.67039062 8.24017578 9.609375 9.82421875 C11.07924293 13.18096769 11.28214318 15.3809711 11 19 C8.20546164 15.50021536 6.01266789 11.69959589 3.8125 7.8125 C3.44447266 7.17119141 3.07644531 6.52988281 2.69726562 5.86914062 C0 1.13016002 0 1.13016002 0 0 Z " fill="#079E96" transform="translate(515,200)"/>
<path d="M0 0 C4.60415193 3.34847413 8.6918413 7.3571375 12 12 C12 12.99 12 13.98 12 15 C7.91667098 13.44533803 5.91791007 10.74912156 3.25 7.375 C2.05117188 5.87066406 2.05117188 5.87066406 0.828125 4.3359375 C0.22484375 3.56507813 -0.3784375 2.79421875 -1 2 C-0.67 1.34 -0.34 0.68 0 0 Z " fill="#06A49A" transform="translate(313,484)"/>
<path d="M0 0 C1 2 1 2 0.47094727 3.78759766 C0.17244873 4.48933105 -0.1260498 5.19106445 -0.43359375 5.9140625 C-0.75263672 6.67460937 -1.07167969 7.43515625 -1.40039062 8.21875 C-1.74263672 9.0128125 -2.08488281 9.806875 -2.4375 10.625 C-2.77587891 11.42679687 -3.11425781 12.22859375 -3.46289062 13.0546875 C-4.30166778 15.03939964 -5.14995245 17.02008875 -6 19 C-7.06542969 17.21362305 -7.06542969 17.21362305 -8 15 C-7.21063012 12.42276625 -6.3784505 10.23025468 -5.25 7.8125 C-4.9715625 7.17119141 -4.693125 6.52988281 -4.40625 5.86914062 C-2.29143282 1.14571641 -2.29143282 1.14571641 0 0 Z " fill="#07A7A1" transform="translate(278,368)"/>
<path d="M0 0 C1 2 1 2 -0.21484375 5.6953125 C-0.78133585 7.17485658 -1.35591889 8.65132181 -1.9375 10.125 C-2.22818359 10.87910156 -2.51886719 11.63320313 -2.81835938 12.41015625 C-3.53874998 14.27608602 -4.26850404 16.1383958 -5 18 C-6.10546875 16.34765625 -6.10546875 16.34765625 -7 14 C-6.42578125 11.30859375 -6.42578125 11.30859375 -5.3125 8.4375 C-4.95800781 7.48746094 -4.60351562 6.53742188 -4.23828125 5.55859375 C-3.06800303 3.140511 -2.02107182 1.72985109 0 0 Z " fill="#08ACA6" transform="translate(270,388)"/>
<path d="M0 0 C5.42121998 -0.27908468 9.37857235 0.57278947 14.4375 2.5 C15.07365234 2.73847656 15.70980469 2.97695312 16.36523438 3.22265625 C17.91402732 3.80490924 19.45760253 4.40101069 21 5 C19.390625 6.1171875 19.390625 6.1171875 17 7 C13.984375 6.3203125 13.984375 6.3203125 10.75 5.125 C9.67234375 4.73570312 8.5946875 4.34640625 7.484375 3.9453125 C6.66453125 3.63335937 5.8446875 3.32140625 5 3 C5 2.34 5 1.68 5 1 C3.35 1 1.7 1 0 1 C0 0.67 0 0.34 0 0 Z " fill="#05ACA3" transform="translate(442,195)"/>
<path d="M0 0 C0.33 0.99 0.66 1.98 1 3 C-4.94 6.465 -4.94 6.465 -11 10 C-11.99 9.34 -12.98 8.68 -14 8 C-9.38 5.36 -4.76 2.72 0 0 Z " fill="#0BA49D" transform="translate(344,420)"/>
<path d="M0 0 C0.99 0.33 1.98 0.66 3 1 C0.67477611 3.5112418 -1.79234784 5.72789898 -4.5 7.8125 C-5.0671875 8.25207031 -5.634375 8.69164062 -6.21875 9.14453125 C-8 10 -8 10 -10.21875 9.63671875 C-10.8065625 9.42660156 -11.394375 9.21648437 -12 9 C-10.07158542 7.46623771 -8.13378206 5.9482818 -6.1875 4.4375 C-5.64029297 3.99986328 -5.09308594 3.56222656 -4.52929688 3.11132812 C-3.0778042 1.99411861 -1.54189429 0.98871133 0 0 Z " fill="#06A39B" transform="translate(441,401)"/>
<path d="M0 0 C0.66 0.33 1.32 0.66 2 1 C0.6744419 4.62276315 -0.94346955 7.63505348 -3.125 10.8125 C-3.66382813 11.60269531 -4.20265625 12.39289063 -4.7578125 13.20703125 C-5.16773438 13.79871094 -5.57765625 14.39039063 -6 15 C-6.66 14.01 -7.32 13.02 -8 12 C-5.36 8.04 -2.72 4.08 0 0 Z " fill="#09A6A0" transform="translate(487,300)"/>
<path d="M0 0 C0.99 0.33 1.98 0.66 3 1 C-1.43076923 6.78461538 -1.43076923 6.78461538 -4.3125 7.875 C-5.1478125 7.936875 -5.1478125 7.936875 -6 8 C-7.32 6.35 -8.64 4.7 -10 3 C-8.63875 3.37125 -8.63875 3.37125 -7.25 3.75 C-3.91162152 4.38259327 -3.91162152 4.38259327 -1.625 2.0625 C-1.08875 1.381875 -0.5525 0.70125 0 0 Z " fill="#0AA29B" transform="translate(426,588)"/>
<path d="M0 0 C-1.88923398 1.01241247 -3.78669944 2.00947425 -5.6875 3 C-7.27111328 3.8353125 -7.27111328 3.8353125 -8.88671875 4.6875 C-11.92226262 5.9672274 -13.76026826 6.28851043 -17 6 C-15.49631918 2.99263836 -13.23800706 2.59983611 -10.1875 1.3125 C-9.12917969 0.85488281 -8.07085937 0.39726562 -6.98046875 -0.07421875 C-4.01633704 -0.99492545 -2.82503443 -1.12864571 0 0 Z " fill="#07A79C" transform="translate(333,470)"/>
<path d="M0 0 C0.66 0 1.32 0 2 0 C1.36843005 5.05255964 -0.13459373 9.29593201 -2 14 C-2.99 13.67 -3.98 13.34 -5 13 C-4.54554036 11.58208592 -4.08625056 10.16571954 -3.625 8.75 C-3.24214844 7.56664062 -3.24214844 7.56664062 -2.8515625 6.359375 C-2.04826333 4.13372042 -1.10288338 2.09068328 0 0 Z " fill="#06A69F" transform="translate(308,388)"/>
<path d="M0 0 C0.33 0 0.66 0 1 0 C1.6319296 6.00333124 -0.62455877 10.63404795 -3 16 C-3.66 15.67 -4.32 15.34 -5 15 C-4.5188509 9.22621075 -2.81532819 5.04140164 0 0 Z " fill="#08A69F" transform="translate(323,251)"/>
<path d="M0 0 C0.99 0.495 0.99 0.495 2 1 C2 1.66 2 2.32 2 3 C3.32 3.66 4.64 4.32 6 5 C6 5.66 6 6.32 6 7 C7.32 7.66 8.64 8.32 10 9 C10 9.66 10 10.32 10 11 C10.66 11.33 11.32 11.66 12 12 C7.43146383 11.73126258 5.23583414 9.82727008 2.2265625 6.6328125 C0.6258003 4.50186155 0.15546233 2.64285955 0 0 Z " fill="#07B6B0" transform="translate(364,536)"/>
<path d="M0 0 C0.66 0.66 1.32 1.32 2 2 C-1.63 5.3 -5.26 8.6 -9 12 C-9.66 11.67 -10.32 11.34 -11 11 C-11 10.34 -11 9.68 -11 9 C-9.21895282 7.39821407 -7.37462722 5.86618074 -5.5 4.375 C-4.4790625 3.55773437 -3.458125 2.74046875 -2.40625 1.8984375 C-1.6121875 1.27195312 -0.818125 0.64546875 0 0 Z " fill="#0AA299" transform="translate(474,374)"/>
<path d="M0 0 C4.70270446 2.12741392 8.16393369 4.62060825 12 8 C11.01 8.33 10.02 8.66 9 9 C6.30078125 7.56640625 6.30078125 7.56640625 3.3125 5.5625 C2.31863281 4.90378906 1.32476563 4.24507813 0.30078125 3.56640625 C-0.45847656 3.04949219 -1.21773437 2.53257812 -2 2 C-1.34 1.34 -0.68 0.68 0 0 Z " fill="#08A39B" transform="translate(541,393)"/>
<path d="M0 0 C0 0.66 0 1.32 0 2 C-1.828125 3.76171875 -1.828125 3.76171875 -4.25 5.6875 C-5.03890625 6.33074219 -5.8278125 6.97398437 -6.640625 7.63671875 C-9 9 -9 9 -11.296875 8.70703125 C-11.85890625 8.47371094 -12.4209375 8.24039062 -13 8 C-11.40320196 6.6578508 -9.79729803 5.32652885 -8.1875 4 C-6.84751953 2.88625 -6.84751953 2.88625 -5.48046875 1.75 C-3 0 -3 0 0 0 Z " fill="#06A199" transform="translate(457,391)"/>
<path d="M0 0 C2 3 2 3 1.57421875 5.15625 C1.28160156 5.9296875 0.98898437 6.703125 0.6875 7.5 C0.26017578 8.66015625 0.26017578 8.66015625 -0.17578125 9.84375 C-0.44777344 10.5553125 -0.71976562 11.266875 -1 12 C-1.33 12.99 -1.66 13.98 -2 15 C-2.99 14.67 -3.98 14.34 -5 14 C-3.35 9.38 -1.7 4.76 0 0 Z " fill="#08A59E" transform="translate(356,267)"/>
<path d="M0 0 C-1.36944102 2.94956528 -2.87830409 5.52468811 -5 8 C-5.66 8 -6.32 8 -7 8 C-7.33 8.99 -7.66 9.98 -8 11 C-8.99 11 -9.98 11 -11 11 C-9.60249952 7.84164893 -7.94801766 5.67727175 -5.5 3.25 C-4.8915625 2.63640625 -4.283125 2.0228125 -3.65625 1.390625 C-2 0 -2 0 0 0 Z " fill="#089C95" transform="translate(469,328)"/>
<path d="M0 0 C1.29023718 3.87071154 0.39933574 4.94112355 -1.3125 8.5625 C-1.76238281 9.53316406 -2.21226562 10.50382812 -2.67578125 11.50390625 C-4 14 -4 14 -6 16 C-7 13 -7 13 -6.328125 11.1328125 C-5.79445313 10.13894531 -5.79445313 10.13894531 -5.25 9.125 C-4.87875 8.42632812 -4.5075 7.72765625 -4.125 7.0078125 C-2.79851082 4.64039779 -1.43833694 2.3013391 0 0 Z " fill="#08A39B" transform="translate(495,284)"/>
<path d="M0 0 C1.305239 3.91571701 0.32239848 5.03892997 -1.4375 8.6875 C-1.91058594 9.68136719 -2.38367188 10.67523438 -2.87109375 11.69921875 C-3.42990234 12.83810547 -3.42990234 12.83810547 -4 14 C-5.109375 12.29296875 -5.109375 12.29296875 -6 10 C-5.390625 7.67578125 -5.390625 7.67578125 -4.25 5.3125 C-3.88390625 4.52488281 -3.5178125 3.73726562 -3.140625 2.92578125 C-2 1 -2 1 0 0 Z " fill="#089D96" transform="translate(336,222)"/>
<path d="M0 0 C0.33 0.99 0.66 1.98 1 3 C-0.26257233 4.17560179 -1.53537084 5.34022865 -2.8125 6.5 C-3.87404297 7.47453125 -3.87404297 7.47453125 -4.95703125 8.46875 C-7 10 -7 10 -10 10 C-8.65790834 5.97372501 -6.51298199 5.24830847 -3 3 C-1.20605554 1.37648891 -1.20605554 1.37648891 0 0 Z " fill="#09A198" transform="translate(439,626)"/>
<path d="M0 0 C1.6140712 2.8973901 2.3756433 5.33286311 2.75 8.625 C2.84796875 9.40101563 2.9459375 10.17703125 3.046875 10.9765625 C3 13 3 13 1 15 C-0.32558098 10.19476896 -1.36809815 6.03067466 -1 1 C-0.67 0.67 -0.34 0.34 0 0 Z " fill="#0A9F97" transform="translate(260,450)"/>
<path d="M0 0 C1.32 0.33 2.64 0.66 4 1 C4 1.66 4 2.32 4 3 C4.66 3 5.32 3 6 3 C10 8.41176471 10 8.41176471 10 11 C6.8510285 9.63088196 4.9521513 8.1247864 2.75 5.5 C2.22921875 4.8915625 1.7084375 4.283125 1.171875 3.65625 C0 2 0 2 0 0 Z " fill="#08A79C" transform="translate(555,405)"/>
<path d="M0 0 C0.99 0 1.98 0 3 0 C2.54554036 1.41791408 2.08625056 2.83428046 1.625 4.25 C1.36976563 5.03890625 1.11453125 5.8278125 0.8515625 6.640625 C0.04826333 8.86627958 -0.89711662 10.90931672 -2 13 C-2.33 13 -2.66 13 -3 13 C-3.38281159 7.76824163 -2.21854707 4.62197306 0 0 Z " fill="#08A198" transform="translate(285,346)"/>
<path d="M0 0 C0.66 0 1.32 0 2 0 C1.39305845 3.15330554 0.3583335 5.18888867 -1.5625 7.75 C-2.24505859 8.67039062 -2.24505859 8.67039062 -2.94140625 9.609375 C-3.46541016 10.29773438 -3.46541016 10.29773438 -4 11 C-4.99 10.34 -5.98 9.68 -7 9 C-6.401875 8.2575 -5.80375 7.515 -5.1875 6.75 C-3.87241641 5.09675206 -2.58957477 3.41593332 -1.375 1.6875 C-0.92125 1.130625 -0.4675 0.57375 0 0 Z " fill="#09A69F" transform="translate(477,315)"/>
<path d="M0 0 C0.33 0.99 0.66 1.98 1 3 C-0.45449401 4.0055761 -1.91372443 5.00430435 -3.375 6 C-4.59316406 6.8353125 -4.59316406 6.8353125 -5.8359375 7.6875 C-8 9 -8 9 -10 9 C-8.59070303 5.52867905 -7.09394917 4.11906726 -3.875 2.25 C-3.15054687 1.82203125 -2.42609375 1.3940625 -1.6796875 0.953125 C-1.12539063 0.63859375 -0.57109375 0.3240625 0 0 Z " fill="#0CA298" transform="translate(379,171)"/>
<path d="M0 0 C0.66 0.99 1.32 1.98 2 3 C1.24088921 4.48521677 0.46728766 5.96303425 -0.3125 7.4375 C-0.95638672 8.67306641 -0.95638672 8.67306641 -1.61328125 9.93359375 C-3 12 -3 12 -6 13 C-4.31326082 8.50202887 -2.18326108 4.27113698 0 0 Z " fill="#05A195" transform="translate(523,311)"/>
<path d="M0 0 C-0.99 0 -1.98 0 -3 0 C-3.33 0.99 -3.66 1.98 -4 3 C-5.84765625 3.73046875 -5.84765625 3.73046875 -8.0625 4.1875 C-8.79597656 4.34605469 -9.52945312 4.50460938 -10.28515625 4.66796875 C-11.13400391 4.83232422 -11.13400391 4.83232422 -12 5 C-11.67 3.68 -11.34 2.36 -11 1 C-3.57142857 -1.42857143 -3.57142857 -1.42857143 0 0 Z " fill="#05AA9F" transform="translate(418,197)"/>
<path d="M0 0 C0.99 0 1.98 0 3 0 C2.67 2.64 2.34 5.28 2 8 C1.34 8 0.68 8 0 8 C0 9.65 0 11.3 0 13 C-0.66 12.67 -1.32 12.34 -2 12 C-1.34 8.04 -0.68 4.08 0 0 Z " fill="#0AA69F" transform="translate(261,409)"/>
<path d="M0 0 C0.66 0.33 1.32 0.66 2 1 C1.55123384 2.64846769 1.09069512 4.29373455 0.625 5.9375 C0.36976563 6.85402344 0.11453125 7.77054687 -0.1484375 8.71484375 C-1 11 -1 11 -3 12 C-3.88336837 9.5332355 -4.1312406 8.36140628 -3.22265625 5.859375 C-2.83980469 5.16328125 -2.45695312 4.4671875 -2.0625 3.75 C-1.68222656 3.04359375 -1.30195313 2.3371875 -0.91015625 1.609375 C-0.60980469 1.07828125 -0.30945313 0.5471875 0 0 Z " fill="#07A59B" transform="translate(323,351)"/>
<path d="M0 0 C1.22419163 3.93795909 0.48320272 6.16112237 -1 10 C-1.66 10 -2.32 10 -3 10 C-3.66 11.98 -4.32 13.96 -5 16 C-6.39211215 11.82366356 -4.9535579 10.21039485 -3.0625 6.3125 C-2.49660156 5.13300781 -1.93070312 3.95351562 -1.34765625 2.73828125 C-0.90292969 1.83464844 -0.45820313 0.93101562 0 0 Z " fill="#059E96" transform="translate(366,244)"/>
<path d="M0 0 C1.12894876 0.93274109 2.25300876 1.87140122 3.375 2.8125 C4.00148438 3.33457031 4.62796875 3.85664063 5.2734375 4.39453125 C7 6 7 6 9 9 C6.35175278 8.64212875 4.44464124 8.31760089 2.25 6.75 C0.68239911 4.55535876 0.35787125 2.64824722 0 0 Z " fill="#06BFB8" transform="translate(331,503)"/>
<path d="M0 0 C0.99 0.66 1.98 1.32 3 2 C2.07213211 3.00894372 1.13231567 4.00690907 0.1875 5 C-0.59560547 5.8353125 -0.59560547 5.8353125 -1.39453125 6.6875 C-3 8 -3 8 -6 8 C-4.55746343 4.63408134 -2.66735273 2.48952921 0 0 Z " fill="#089A94" transform="translate(486,362)"/>
<path d="M0 0 C0.66 0 1.32 0 2 0 C1.01 3.3 0.02 6.6 -1 10 C-1.99 10 -2.98 10 -4 10 C-3.52449439 8.51965236 -3.04448784 7.04074979 -2.5625 5.5625 C-2.29566406 4.73878906 -2.02882813 3.91507812 -1.75390625 3.06640625 C-1 1 -1 1 0 0 Z " fill="#08A39C" transform="translate(334,324)"/>
<path d="M0 0 C0.33 0 0.66 0 1 0 C1.98329211 4.05607995 2.23600253 7.83062202 2 12 C1.34 12.66 0.68 13.32 0 14 C-0.19393875 11.85473901 -0.37998676 9.70876323 -0.5625 7.5625 C-0.71912109 5.77005859 -0.71912109 5.77005859 -0.87890625 3.94140625 C-0.91886719 2.97074219 -0.95882812 2.00007812 -1 1 C-0.67 0.67 -0.34 0.34 0 0 Z " fill="#089F97" transform="translate(534,242)"/>
<path d="M0 0 C-1.55500981 3.81684226 -4.03595495 6.19195732 -7 9 C-7 5 -7 5 -4.625 2.25 C-2 0 -2 0 0 0 Z " fill="#09A69E" transform="translate(524,490)"/>
<path d="M0 0 C0.66 0.66 1.32 1.32 2 2 C1.9765625 4.3828125 1.9765625 4.3828125 1.625 7.125 C1.51414062 8.03507812 1.40328125 8.94515625 1.2890625 9.8828125 C1.19367188 10.58148438 1.09828125 11.28015625 1 12 C0.01 12 -0.98 12 -2 12 C-1.34 8.04 -0.68 4.08 0 0 Z " fill="#09A29B" transform="translate(496,271)"/>
<path d="M0 0 C1.12894876 0.93274109 2.25300876 1.87140122 3.375 2.8125 C4.00148438 3.33457031 4.62796875 3.85664062 5.2734375 4.39453125 C7 6 7 6 9 9 C4.56541027 7.6062718 2.12621626 5.39417765 -1 2 C-0.67 1.34 -0.34 0.68 0 0 Z " fill="#0BA8A0" transform="translate(381,605)"/>
<path d="M0 0 C0 0.66 0 1.32 0 2 C-7.42857143 4.42857143 -7.42857143 4.42857143 -11 3 C-10 1 -10 1 -8.3125 0.375 C-5.51555886 -0.07855802 -2.82858003 -0.06428591 0 0 Z " fill="#09A198" transform="translate(415,159)"/>
<path d="M0 0 C0.33 0.99 0.66 1.98 1 3 C-0.12073862 3.83905565 -1.24674547 4.67107831 -2.375 5.5 C-3.00148438 5.9640625 -3.62796875 6.428125 -4.2734375 6.90625 C-6 8 -6 8 -8 8 C-6.49776416 3.79373966 -3.71449966 2.26099979 0 0 Z " fill="#0A9E96" transform="translate(396,387)"/>
<path d="M0 0 C0.33 0.66 0.66 1.32 1 2 C3.01669827 3.13350534 3.01669827 3.13350534 5 4 C5 4.66 5 5.32 5 6 C5.99 6.33 6.98 6.66 8 7 C6.68 7.33 5.36 7.66 4 8 C3.731875 7.360625 3.46375 6.72125 3.1875 6.0625 C2.11332248 3.66868314 2.11332248 3.66868314 -1 3 C-0.67 2.01 -0.34 1.02 0 0 Z " fill="#08B7B3" transform="translate(397,569)"/>
<path d="M0 0 C5.94 1.485 5.94 1.485 12 3 C12 3.33 12 3.66 12 4 C10.741875 4.020625 9.48375 4.04125 8.1875 4.0625 C7.47980469 4.07410156 6.77210938 4.08570313 6.04296875 4.09765625 C4 4 4 4 1 3 C0.67 2.01 0.34 1.02 0 0 Z " fill="#05A097" transform="translate(506,419)"/>
<path d="M0 0 C0 2.64 0 5.28 0 8 C-0.99 8.33 -1.98 8.66 -3 9 C-3 6.36 -3 3.72 -3 1 C-1 0 -1 0 0 0 Z " fill="#089C93" transform="translate(497,398)"/>
<path d="M0 0 C1.15957207 3.47871621 0.77456651 4.34219645 -0.4375 7.6875 C-0.86869141 8.89986328 -0.86869141 8.89986328 -1.30859375 10.13671875 C-1.53675781 10.75160156 -1.76492188 11.36648438 -2 12 C-3.1171875 10.265625 -3.1171875 10.265625 -4 8 C-3.3203125 5.859375 -3.3203125 5.859375 -2.125 3.75 C-1.73570312 3.04359375 -1.34640625 2.3371875 -0.9453125 1.609375 C-0.63335937 1.07828125 -0.32140625 0.5471875 0 0 Z " fill="#079F98" transform="translate(339,311)"/>
<path d="M0 0 C2.04119788 1.61594832 4.04072937 3.2856382 6 5 C6 5.66 6 6.32 6 7 C6.66 7.33 7.32 7.66 8 8 C5.6875 7.8125 5.6875 7.8125 3 7 C0 2.96551724 0 2.96551724 0 0 Z " fill="#07BDB7" transform="translate(344,516)"/>
<path d="M0 0 C0.99 0.33 1.98 0.66 3 1 C-0.61328125 5.6875 -0.61328125 5.6875 -2 7 C-2.99 7 -3.98 7 -5 7 C-3.70700306 4.11562221 -2.34058637 2.12780579 0 0 Z " fill="#0AA59C" transform="translate(551,512)"/>
<path d="M0 0 C0.66 0 1.32 0 2 0 C1.69381595 3.67420866 1.24228216 4.78135513 -1.5625 7.3125 C-2.366875 7.869375 -3.17125 8.42625 -4 9 C-3.4739075 5.21213403 -2.61896089 2.82847776 0 0 Z " fill="#0AA199" transform="translate(558,502)"/>
<path d="M0 0 C4.875 4.625 4.875 4.625 6 8 C3.23737447 7.6189482 2.15856106 7.16402868 0.1875 5.125 C-0.204375 4.42375 -0.59625 3.7225 -1 3 C-0.67 2.01 -0.34 1.02 0 0 Z " fill="#069B93" transform="translate(497,410)"/>
<path d="M0 0 C4 1 4 1 5.8125 3.4375 C6.204375 4.283125 6.59625 5.12875 7 6 C6.67 6.66 6.34 7.32 6 8 C5.34 8 4.68 8 4 8 C2.68 5.36 1.36 2.72 0 0 Z " fill="#08A89D" transform="translate(515,200)"/>
<path d="M0 0 C3.87132028 0.57352893 6.08172796 2.48704352 9 5 C8.67 5.99 8.34 6.98 8 8 C4.80800833 5.58443874 2.25283313 3.31996462 0 0 Z " fill="#09A199" transform="translate(521,424)"/>
<path d="M0 0 C3 1 3 1 4.1875 2.75 C5.10819096 5.29960574 5.14948718 7.30923081 5 10 C0 3.40909091 0 3.40909091 0 0 Z " fill="#08A69C" transform="translate(565,417)"/>
<path d="M0 0 C0.99 0.66 1.98 1.32 3 2 C3 2.66 3 3.32 3 4 C3.99 4.33 4.98 4.66 6 5 C5.34 5.66 4.68 6.32 4 7 C2.02 5.35 0.04 3.7 -2 2 C-1.34 1.34 -0.68 0.68 0 0 Z " fill="#05B5AF" transform="translate(411,583)"/>
<path d="M0 0 C2.475 0.495 2.475 0.495 5 1 C5 1.66 5 2.32 5 3 C5.66 3 6.32 3 7 3 C7.33 4.65 7.66 6.3 8 8 C6.85073734 7.04578192 5.70569459 6.08647955 4.5625 5.125 C3.92441406 4.59132813 3.28632813 4.05765625 2.62890625 3.5078125 C1 2 1 2 0 0 Z " fill="#07A8A0" transform="translate(357,532)"/>
<path d="M0 0 C0.99 0.66 1.98 1.32 3 2 C0.03 4.475 0.03 4.475 -3 7 C-3 3 -3 3 -1.5 1.25 C-1.005 0.8375 -0.51 0.425 0 0 Z " fill="#08BDB7" transform="translate(479,369)"/>
<path d="M0 0 C0.33 0.99 0.66 1.98 1 3 C0.01 4.485 0.01 4.485 -1 6 C-1.66 6 -2.32 6 -3 6 C-3.33 6.99 -3.66 7.98 -4 9 C-4.33 8.34 -4.66 7.68 -5 7 C-2.54545455 1.27272727 -2.54545455 1.27272727 0 0 Z " fill="#08A39D" transform="translate(514,499)"/>
<path d="M0 0 C0.33 0.99 0.66 1.98 1 3 C-2.625 6 -2.625 6 -6 6 C-4.75453595 2.26360784 -3.36595047 1.81243487 0 0 Z " fill="#06A59E" transform="translate(416,419)"/>
<path d="M0 0 C0.33 0.99 0.66 1.98 1 3 C-1.375 4.5625 -1.375 4.5625 -4 6 C-4.66 5.67 -5.32 5.34 -6 5 C-6 4.34 -6 3.68 -6 3 C-4.02 2.01 -2.04 1.02 0 0 Z " fill="#079A94" transform="translate(344,420)"/>
<path d="M0 0 C-2.62198774 2.15377564 -4.64404172 3.40072174 -8 4 C-5.97675095 -0.48005146 -4.79569304 -1.43870791 0 0 Z " fill="#09A59E" transform="translate(358,415)"/>
<path d="M0 0 C0.66 0.66 1.32 1.32 2 2 C-2.625 6 -2.625 6 -6 6 C-6 5.34 -6 4.68 -6 4 C-4.03852126 2.61061923 -2.03833424 1.2739589 0 0 Z " fill="#0A9994" transform="translate(405,381)"/>
<path d="M0 0 C-4.625 4 -4.625 4 -8 4 C-7 1 -7 1 -5.125 -0.25 C-3 -1 -3 -1 0 0 Z " fill="#099D96" transform="translate(389,168)"/>
<path d="M0 0 C0.6875 1.75 0.6875 1.75 1 4 C-0.4375 6.25 -0.4375 6.25 -2 8 C-2.66 7.34 -3.32 6.68 -4 6 C-2.68 4.02 -1.36 2.04 0 0 Z " fill="#09A6A0" transform="translate(533,473)"/>
<path d="M0 0 C0.598125 0.20625 1.19625 0.4125 1.8125 0.625 C-2.8125 4.625 -2.8125 4.625 -6.1875 4.625 C-5.03076352 1.15479057 -3.91311293 -0.67081936 0 0 Z " fill="#089F95" transform="translate(428.1875,412.375)"/>
<path d="M0 0 C1 2 1 2 0.44140625 3.9453125 C0.15136719 4.66460937 -0.13867188 5.38390625 -0.4375 6.125 C-0.72496094 6.84945313 -1.01242187 7.57390625 -1.30859375 8.3203125 C-1.53675781 8.87460937 -1.76492188 9.42890625 -2 10 C-3.125 8.3125 -3.125 8.3125 -4 6 C-3.25 3.3125 -3.25 3.3125 -2 1 C-1.34 0.67 -0.68 0.34 0 0 Z " fill="#069F98" transform="translate(270,388)"/>
<path d="M0 0 C1.39195915 4.17587745 -0.17676781 6.13474776 -2 10 C-3.125 8.25 -3.125 8.25 -4 6 C-3.125 3.75 -3.125 3.75 -2 2 C-1.34 2 -0.68 2 0 2 C0 1.34 0 0.68 0 0 Z " fill="#069E97" transform="translate(274,377)"/>
<path d="M0 0 C0.66 0.66 1.32 1.32 2 2 C-0.97 4.475 -0.97 4.475 -4 7 C-4.33 6.01 -4.66 5.02 -5 4 C-3.35 2.68 -1.7 1.36 0 0 Z " fill="#07A29B" transform="translate(431,361)"/>
<path d="M0 0 C1.32 0 2.64 0 4 0 C5.8125 2.375 5.8125 2.375 7 5 C6.67 5.66 6.34 6.32 6 7 C4.02 4.69 2.04 2.38 0 0 Z " fill="#09A49C" transform="translate(373,548)"/>
<path d="M0 0 C0 0.99 0 1.98 0 3 C-1.98 3.66 -3.96 4.32 -6 5 C-6 4.01 -6 3.02 -6 2 C-3 0 -3 0 0 0 Z " fill="#05A69B" transform="translate(349,460)"/>
<path d="M0 0 C0.598125 0.20625 1.19625 0.4125 1.8125 0.625 C-0.1675 1.945 -2.1475 3.265 -4.1875 4.625 C-4.5175 3.635 -4.8475 2.645 -5.1875 1.625 C-2.1875 -0.375 -2.1875 -0.375 0 0 Z " fill="#09A9A1" transform="translate(401.1875,430.375)"/>
<path d="M0 0 C1.32 0.66 2.64 1.32 4 2 C1.69 3.32 -0.62 4.64 -3 6 C-3 4.68 -3 3.36 -3 2 C-2.01 1.34 -1.02 0.68 0 0 Z " fill="#06B6B0" transform="translate(420,416)"/>
<path d="M0 0 C0.66 0.33 1.32 0.66 2 1 C2 1.66 2 2.32 2 3 C0.03852126 4.38938077 -1.96166576 5.7260411 -4 7 C-4 4 -4 4 -2 1.8125 C-1.34 1.214375 -0.68 0.61625 0 0 Z " fill="#099993" transform="translate(456,339)"/>
<path d="M0 0 C0.66 0 1.32 0 2 0 C1.45276317 3.37462715 0.9451 5.08235 -1 8 C-1.625 5.6875 -1.625 5.6875 -2 3 C-1.34 2.01 -0.68 1.02 0 0 Z " fill="#09A39D" transform="translate(342,304)"/>
<path d="M0 0 C0.66 0.33 1.32 0.66 2 1 C2.40729228 3.32156597 2.74438677 5.6568787 3 8 C2.01 8.495 2.01 8.495 1 9 C-1.125 3.375 -1.125 3.375 0 0 Z " fill="#09A19A" transform="translate(529,224)"/>
<path d="M0 0 C0.66 0.99 1.32 1.98 2 3 C-0.31 4.65 -2.62 6.3 -5 8 C-3.8141763 4.62496331 -2.72426311 2.35277269 0 0 Z " fill="#089C96" transform="translate(367,179)"/>
<path d="M0 0 C0.66 0.33 1.32 0.66 2 1 C1.1875 2.9375 1.1875 2.9375 0 5 C-0.99 5.33 -1.98 5.66 -3 6 C-2.42655063 3.13275314 -2.1385485 2.1385485 0 0 Z " fill="#07B8B0" transform="translate(462,384)"/>
<path d="M0 0 C0.66 0 1.32 0 2 0 C1.6875 1.875 1.6875 1.875 1 4 C0.01 4.66 -0.98 5.32 -2 6 C-2 2 -2 2 0 0 Z " fill="#07B7B1" transform="translate(494,354)"/>
<path d="M0 0 C1.125 1.75 1.125 1.75 2 4 C1.125 6.25 1.125 6.25 0 8 C-0.66 8 -1.32 8 -2 8 C-1.125 2.25 -1.125 2.25 0 0 Z " fill="#07A099" transform="translate(345,295)"/>
<path d="M0 0 C0.33 0 0.66 0 1 0 C0.88637738 1.4800841 0.75877092 2.95910074 0.625 4.4375 C0.52058594 5.67306641 0.52058594 5.67306641 0.4140625 6.93359375 C0.27742188 7.61550781 0.14078125 8.29742187 0 9 C-0.99 9.495 -0.99 9.495 -2 10 C-1.85950482 8.52031676 -1.71245174 7.04125484 -1.5625 5.5625 C-1.48128906 4.73878906 -1.40007812 3.91507812 -1.31640625 3.06640625 C-1 1 -1 1 0 0 Z " fill="#08A6A0" transform="translate(310,283)"/>
<path d="M0 0 C0.66 0 1.32 0 2 0 C1.34 2.31 0.68 4.62 0 7 C-0.66 7 -1.32 7 -2 7 C-1.125 1.125 -1.125 1.125 0 0 Z " fill="#09A098" transform="translate(316,269)"/>
<path d="M0 0 C0.66 0.99 1.32 1.98 2 3 C0.68 4.32 -0.64 5.64 -2 7 C-2.66 6.67 -3.32 6.34 -4 6 C-2.68 4.02 -1.36 2.04 0 0 Z " fill="#08B7B0" transform="translate(347,200)"/>
</svg>
