<?xml version="1.0" encoding="UTF-8"?>
<svg version="1.1" xmlns="http://www.w3.org/2000/svg" width="1640" height="664">
<path d="M0 0 C0 0.66 0 1.32 0 2 C0.59425781 2.27972656 1.18851563 2.55945313 1.80078125 2.84765625 C9.23826631 6.7447399 18.17126717 15.36297819 20.7578125 23.3359375 C20.87769531 24.15964844 20.87769531 24.15964844 21 25 C21.66 25 22.32 25 23 25 C33.91934929 45.18239279 39.79374431 70.55149069 33.3359375 93.34375 C32.61005685 95.25010323 31.80744194 97.12673471 31 99 C30.72285156 100.04542969 30.44570313 101.09085937 30.16015625 102.16796875 C28.9109539 106.66342603 26.90574189 110.7504403 24.875 114.9375 C24.50246094 115.71673828 24.12992188 116.49597656 23.74609375 117.29882812 C22.83558808 119.20155151 21.91847328 121.10110988 21 123 C20.34 123 19.68 123 19 123 C18.74476563 123.89203125 18.48953125 124.7840625 18.2265625 125.703125 C16.98431752 129.04215291 15.65432313 131.04387135 13.375 133.75 C10.25579108 137.47904641 10.25579108 137.47904641 7.2578125 141.3046875 C2.80915574 147.17691443 -2.19276301 152.40489458 -7.375 157.625 C-8.44717773 158.71095459 -8.44717773 158.71095459 -9.54101562 159.81884766 C-10.21583984 160.48964355 -10.89066406 161.16043945 -11.5859375 161.8515625 C-12.1948584 162.45822754 -12.8037793 163.06489258 -13.43115234 163.68994141 C-15 165 -15 165 -17 165 C-17.66 166.32 -18.32 167.64 -19 169 C-19.99 169 -20.98 169 -22 169 C-22.33 169.99 -22.66 170.98 -23 172 C-26.44444444 175 -26.44444444 175 -29 175 C-29.33 175.99 -29.66 176.98 -30 178 C-32.22265625 179.83203125 -32.22265625 179.83203125 -35.0625 181.8125 C-39.26795981 184.77493979 -43.3889052 187.80089055 -47.44140625 190.96875 C-49 192 -49 192 -51 192 C-51 192.66 -51 193.32 -51 194 C-53.0546875 195.48046875 -53.0546875 195.48046875 -55.875 197.1875 C-59.52655964 199.44137775 -63.08743667 201.73315658 -66.5625 204.25 C-73.45575447 209.13593877 -80.73608698 213.41757811 -87.96923828 217.77539062 C-89.64801821 218.78774457 -91.32262052 219.80702269 -92.99609375 220.828125 C-102.70550959 226.73144983 -112.74015634 231.93893505 -122.921875 236.96875 C-125.59553674 238.2915893 -128.24940542 239.64481124 -130.890625 241.03125 C-131.5096167 241.35230713 -132.1286084 241.67336426 -132.76635742 242.00415039 C-134.45298933 242.88059375 -136.13487298 243.76615755 -137.81640625 244.65234375 C-141.24600127 246.10413551 -144.30707396 246.63210447 -148 247 C-146.56760415 248.79574993 -145.1288996 250.58646907 -143.6875 252.375 C-142.88699219 253.37273437 -142.08648437 254.37046875 -141.26171875 255.3984375 C-139.08378314 258.13480753 -139.08378314 258.13480753 -136 260 C-136 260.99 -136 261.98 -136 263 C-135.43796875 263.2371875 -134.8759375 263.474375 -134.296875 263.71875 C-131.48105958 265.28947697 -129.52044584 267.21471464 -127.25 269.5 C-126.45078125 270.2940625 -125.6515625 271.088125 -124.828125 271.90625 C-123 274 -123 274 -123 276 C-121.68 276.66 -120.36 277.32 -119 278 C-119 278.66 -119 279.32 -119 280 C-118.1646875 280.3403125 -118.1646875 280.3403125 -117.3125 280.6875 C-114.33840412 282.37550036 -112.27991135 284.46676517 -110 287 C-110 287.66 -110 288.32 -110 289 C-109.01 289.33 -108.02 289.66 -107 290 C-104.3125 292.4375 -104.3125 292.4375 -102 295 C-102 295.66 -102 296.32 -102 297 C-101.360625 297.268125 -100.72125 297.53625 -100.0625 297.8125 C-98 299 -98 299 -97 302 C-96.01 302.33 -95.02 302.66 -94 303 C-91.3125 305.4375 -91.3125 305.4375 -89 308 C-89 308.66 -89 309.32 -89 310 C-88.13375 310.37125 -88.13375 310.37125 -87.25 310.75 C-84.67060021 312.18299988 -82.93878408 313.78424676 -81 316 C-81 316.66 -81 317.32 -81 318 C-80.360625 318.268125 -79.72125 318.53625 -79.0625 318.8125 C-77 320 -77 320 -76 323 C-74.67592331 323.68486725 -73.34090759 324.34870203 -72 325 C-69.75 327 -69.75 327 -68 329 C-68 329.66 -68 330.32 -68 331 C-67.13375 331.37125 -67.13375 331.37125 -66.25 331.75 C-64 333 -64 333 -62.0625 335.1875 C-61.381875 335.785625 -60.70125 336.38375 -60 337 C-57.29294488 336.85974801 -57.29294488 336.85974801 -55 336 C-55 335.34 -55 334.68 -55 334 C-53.125 331.875 -53.125 331.875 -51 330 C-50.34 330 -49.68 330 -49 330 C-49 329.34 -49 328.68 -49 328 C-46.625 325.375 -46.625 325.375 -44 323 C-43.34 323 -42.68 323 -42 323 C-41.34 321.68 -40.68 320.36 -40 319 C-39.34 319 -38.68 319 -38 319 C-38 318.34 -38 317.68 -38 317 C-37.34 317 -36.68 317 -36 317 C-36 316.34 -36 315.68 -36 315 C-35.34 315 -34.68 315 -34 315 C-33.6596875 314.1646875 -33.6596875 314.1646875 -33.3125 313.3125 C-31.62449964 310.33840412 -29.53323483 308.27991135 -27 306 C-26.34 306 -25.68 306 -25 306 C-25 305.34 -25 304.68 -25 304 C-24.34 304 -23.68 304 -23 304 C-23 303.34 -23 302.68 -23 302 C-22.34 302 -21.68 302 -21 302 C-20.34 300.68 -19.68 299.36 -19 298 C-18.34 298 -17.68 298 -17 298 C-16.6596875 297.1646875 -16.6596875 297.1646875 -16.3125 296.3125 C-14.62449964 293.33840412 -12.53323483 291.27991135 -10 289 C-9.34 289 -8.68 289 -8 289 C-7.34 287.68 -6.68 286.36 -6 285 C-5.34 285 -4.68 285 -4 285 C-3.34 283.68 -2.68 282.36 -2 281 C-1.34 281 -0.68 281 0 281 C0.37125 280.1646875 0.37125 280.1646875 0.75 279.3125 C3.2119626 274.7578692 6.3544211 271.66263141 10.36328125 268.44140625 C13.57753009 265.61071933 16.23992656 262.26360035 19 259 C19.55171875 258.37480469 20.1034375 257.74960937 20.671875 257.10546875 C29.34880885 247.24726915 34.4839732 236.58451214 34.3359375 223.39453125 C33.65500273 216.51392298 30.76980654 211.10210259 25.5 206.625 C21.04741199 203.60299635 16.1385647 202.42999026 11.00390625 200.99609375 C6.43303182 199.48039417 3.47779564 197.35829408 0.87890625 193.2109375 C-0.91712991 188.69290877 -0.52291332 183.76361278 0 179 C1.99460292 174.93955833 4.14570785 172.33234089 8 170 C21.11416687 167.89847512 32.58480697 172.15646565 43.4375 179.375 C54.43770393 187.73879142 63.76537611 198.62154929 66.6015625 212.5078125 C69.21026212 235.37229741 64.2563534 254.99344139 50.21875 273.3203125 C47.60272385 276.47980887 44.93201641 279.57664421 42.1875 282.625 C41.71916748 283.14674805 41.25083496 283.66849609 40.76831055 284.20605469 C38.52735002 286.62569241 37.18309662 287.93896779 34 289 C33.32860523 290.33095879 32.66294229 291.66481097 32 293 C30.44286949 294.67012582 28.83265376 296.29150867 27.1875 297.875 C23.09368365 301.86168468 23.09368365 301.86168468 19.375 306.1875 C16.80643593 309.22922061 14.00133176 311.63931719 10.9765625 314.2109375 C8.56085138 316.39749026 6.5639329 318.79988604 4.5 321.3125 C2.42288923 323.64924962 0.05933837 325.54951737 -2.34765625 327.53515625 C-4.25141992 329.14903343 -4.25141992 329.14903343 -6.5 332 C-8.44681821 334.33618185 -10.13044709 336.03430755 -12.4375 337.9375 C-14.89367091 339.96927853 -16.97280842 342.04034088 -19 344.5 C-21.50950358 347.54344052 -24.2450771 349.96523901 -27.28125 352.46875 C-29.60398185 354.53809292 -31.49026636 356.88152318 -33.46484375 359.27734375 C-35.55576263 361.62364204 -37.92016661 363.53682672 -40.34765625 365.5234375 C-41.97051267 366.97364962 -43.19591909 368.45157591 -44.5 370.1875 C-47.97530073 374.09721332 -51.20904496 375.67641101 -56.42578125 376.28125 C-62.01758355 376.48489682 -66.1331905 375.79582673 -71 373 C-71.495 371.515 -71.495 371.515 -72 370 C-72.5775 369.71125 -73.155 369.4225 -73.75 369.125 C-76.79225245 367.60387378 -78.73842507 365.51286104 -81 363 C-81 362.34 -81 361.68 -81 361 C-82.32 360.34 -83.64 359.68 -85 359 C-85 358.34 -85 357.68 -85 357 C-85.8353125 356.6596875 -85.8353125 356.6596875 -86.6875 356.3125 C-89.66159588 354.62449964 -91.72008865 352.53323483 -94 350 C-94 349.34 -94 348.68 -94 348 C-94.99 347.67 -95.98 347.34 -97 347 C-99.6875 344.5625 -99.6875 344.5625 -102 342 C-102 341.34 -102 340.68 -102 340 C-102.639375 339.731875 -103.27875 339.46375 -103.9375 339.1875 C-106 338 -106 338 -107 335 C-107.99 334.67 -108.98 334.34 -110 334 C-112.1875 332.0625 -112.1875 332.0625 -114 330 C-114 329.34 -114 328.68 -114 328 C-114.639375 327.731875 -115.27875 327.46375 -115.9375 327.1875 C-118 326 -118 326 -119 323 C-120.32407669 322.31513275 -121.65909241 321.65129797 -123 321 C-125.25 319 -125.25 319 -127 317 C-127 316.34 -127 315.68 -127 315 C-127.56203125 314.7628125 -128.1240625 314.525625 -128.703125 314.28125 C-131.51894042 312.71052303 -133.47955416 310.78528536 -135.75 308.5 C-136.54921875 307.7059375 -137.3484375 306.911875 -138.171875 306.09375 C-140 304 -140 304 -140 302 C-140.56203125 301.7628125 -141.1240625 301.525625 -141.703125 301.28125 C-144.51894042 299.71052303 -146.47955416 297.78528536 -148.75 295.5 C-149.54921875 294.7059375 -150.3484375 293.911875 -151.171875 293.09375 C-153 291 -153 291 -153 289 C-153.59554687 288.73960937 -154.19109375 288.47921875 -154.8046875 288.2109375 C-157.15893043 286.91233375 -158.40351697 285.67520844 -160.125 283.625 C-161.02412109 282.55765625 -161.02412109 282.55765625 -161.94140625 281.46875 C-162.62074219 280.6540625 -163.30007812 279.839375 -164 279 C-164.81339844 278.0615625 -165.62679687 277.123125 -166.46484375 276.15625 C-171.65950147 270.09451407 -176.12059594 263.99524288 -180 257 C-181.0209375 255.3603125 -181.0209375 255.3603125 -182.0625 253.6875 C-192.95963427 234.44653489 -194.37777467 209.35948351 -188.9375 188.125 C-186.886833 180.7551814 -183.99202736 173.78714721 -180.7578125 166.8671875 C-178.93467727 162.94395989 -177.41685659 158.93822124 -175.9375 154.875 C-173.60904158 148.50623359 -171.03708679 142.28824483 -168.296875 136.0859375 C-166.97860903 133.05856643 -166.97860903 133.05856643 -166.03125 130.09375 C-164.78441591 126.35324773 -163.27808656 122.75755666 -161.75 119.125 C-159.38745165 113.45488397 -157.12382245 107.76373623 -155 102 C-152.63252845 95.57960266 -150.09015237 89.24549934 -147.44726562 82.93359375 C-145.77873348 78.94005779 -144.20805172 74.92424926 -142.70336914 70.86621094 C-141.7204232 68.25821414 -140.64698627 65.69221011 -139.5625 63.125 C-137.98391975 59.36760091 -136.43483082 55.60298706 -134.9375 51.8125 C-133.07691044 47.14990704 -131.1145262 42.55323063 -129 38 C-128.55785156 37.03835937 -128.11570312 36.07671875 -127.66015625 35.0859375 C-124.44922796 28.35746708 -120.85109061 22.65116609 -116 17 C-115.28972656 16.15695313 -114.57945312 15.31390625 -113.84765625 14.4453125 C-109.82185205 9.77159407 -109.82185205 9.77159407 -108 8 C-107.34 8 -106.68 8 -106 8 C-105.7834375 7.42121094 -105.566875 6.84242188 -105.34375 6.24609375 C-99.24113121 -3.95450452 -82.09166745 -9.2235669 -71.296875 -12.203125 C-45.72886424 -18.38307073 -22.36394008 -12.47893835 0 0 Z M-87.58984375 34.53515625 C-91.81395057 38.8551099 -94.72118453 43.06777678 -97.375 48.5 C-97.67390137 49.11166016 -97.97280273 49.72332031 -98.28076172 50.35351562 C-99.19448804 52.23224142 -100.09771499 54.11575802 -101 56 C-101.53109375 57.093125 -102.0621875 58.18625 -102.609375 59.3125 C-105.76372092 65.94638214 -108.37838613 72.64299169 -110.78125 79.58203125 C-112.26857549 83.75321653 -113.9510334 87.81971827 -115.69140625 91.890625 C-117.52051131 96.23679702 -119.25574716 100.61921843 -121 105 C-121.64292348 106.60819516 -122.28614659 108.21627056 -122.9296875 109.82421875 C-123.24703857 110.61763672 -123.56438965 111.41105469 -123.89135742 112.22851562 C-124.56849218 113.9212685 -125.24574509 115.61397411 -125.9230957 117.30664062 C-127.50991632 121.27240981 -129.09583943 125.23851596 -130.67578125 129.20703125 C-132.8707856 134.71682644 -135.07920064 140.21876863 -137.375 145.6875 C-139.98194075 151.90727504 -142.48830014 158.1660604 -144.97900391 164.43310547 C-146.52857565 168.33157887 -148.08449497 172.22499406 -149.70703125 176.09375 C-155.44097757 189.8278913 -158.75866184 202.14287236 -158 217 C-154.2240295 216.39773947 -151.26936167 215.30916133 -147.875 213.5625 C-146.82957031 213.02496094 -145.78414062 212.48742187 -144.70703125 211.93359375 C-143.83232178 211.47702393 -143.83232178 211.47702393 -142.93994141 211.01123047 C-140.78069913 209.88568535 -138.61484975 208.7733563 -136.44921875 207.66015625 C-127.04378149 202.79619071 -117.9386578 197.67513024 -109 192 C-107.33660936 190.99456011 -105.66941167 189.99541069 -104 189 C-100.95373326 187.17421853 -97.91348482 185.33869788 -94.875 183.5 C-94.06417969 183.01402344 -93.25335938 182.52804687 -92.41796875 182.02734375 C-91.63808594 181.55425781 -90.85820312 181.08117187 -90.0546875 180.59375 C-89.34812012 180.16771484 -88.64155273 179.74167969 -87.91357422 179.30273438 C-86.03030777 178.02063311 -84.58584935 176.62531493 -83 175 C-81.34315862 173.98380395 -79.67529898 172.98546999 -78 172 C-76.15390538 170.68439234 -74.32086812 169.3503067 -72.5 168 C-69.76465395 165.97154113 -67.11423284 164.06527591 -64.15625 162.375 C-63.4446875 161.92125 -62.733125 161.4675 -62 161 C-62 160.34 -62 159.68 -62 159 C-61.29359375 158.7628125 -60.5871875 158.525625 -59.859375 158.28125 C-56.50437901 156.77791846 -54.07288849 154.84986394 -51.25 152.5 C-49.80367187 151.30890625 -49.80367187 151.30890625 -48.328125 150.09375 C-45.95627859 148.21755516 -45.95627859 148.21755516 -45 146 C-44.01 145.67 -43.02 145.34 -42 145 C-40.82051185 143.85421151 -39.64688798 142.70143065 -38.51171875 141.51171875 C-36.79618581 139.79618581 -34.97775842 138.25356466 -33.125 136.6875 C-28.99339317 133.08578326 -25.49033684 129.21776842 -22 125 C-21.5560791 124.484375 -21.1121582 123.96875 -20.65478516 123.4375 C-5.73400311 106.09806362 3.57465814 87.38754552 2 64 C0.40196526 50.67776977 -6.4190526 36.93518074 -17.0625 28.5 C-39.45354612 11.84280362 -67.97149419 16.24588486 -87.58984375 34.53515625 Z " fill="#0DB1A9" transform="translate(400,141)"/>
<path d="M0 0 C0.74121094 0.28875 1.48242188 0.5775 2.24609375 0.875 C13.57436282 5.82145667 22.22220805 16.5688137 26.76318359 27.90527344 C30.73643834 39.43097139 31 49.59620118 31 62 C4.93 62 -21.14 62 -48 62 C-44.83982675 72.53391082 -42.50585418 79.62981065 -32.83203125 85.125 C-26.98270373 87.91870867 -20.43157827 87.93412497 -14.23046875 86.24609375 C-7.34865748 83.61511643 -2.52002172 80.66951484 1 74 C7.31621227 75.31377215 13.38376274 76.95450343 19.5 79 C20.30953125 79.26039063 21.1190625 79.52078125 21.953125 79.7890625 C23.98980697 80.46567832 25.99822065 81.22620294 28 82 C28.33 82.66 28.66 83.32 29 84 C23.24698614 97.23193187 12.75928028 104.66743235 -0.01293945 110.23291016 C-15.57312087 116.23980167 -32.79788031 114.70594031 -47.984375 108.48828125 C-52.53347133 106.24319615 -56.25599271 103.39719399 -60 100 C-60.886875 99.195625 -61.77375 98.39125 -62.6875 97.5625 C-75.72661202 83.11375425 -79.97420751 67.48696298 -79.41015625 48.23828125 C-78.7068883 36.15045007 -74.26972339 25.65608912 -67 16 C-66.48953125 15.28457031 -65.9790625 14.56914062 -65.453125 13.83203125 C-50.45336483 -5.3632064 -21.50987655 -9.12348225 0 0 Z M-42.26953125 27.73828125 C-45.53199105 32.00230884 -48 36.56974857 -48 42 C-32.16 42 -16.32 42 0 42 C-3.65439018 29.76523328 -3.65439018 29.76523328 -12.625 21.5625 C-23.64381782 16.46119545 -34.12178448 18.94001577 -42.26953125 27.73828125 Z " fill="#0CB2A9" transform="translate(1461,271)"/>
<path d="M0 0 C13.15859778 8.93981071 19.39653156 21.30358323 23.046875 36.390625 C24.046875 43.390625 24.046875 43.390625 24.046875 58.390625 C-2.023125 58.390625 -28.093125 58.390625 -54.953125 58.390625 C-51.14655556 71.84940488 -51.14655556 71.84940488 -41.88671875 80.76171875 C-35.28355708 84.17551789 -28.28214071 84.69176174 -21.171875 82.5546875 C-18.70685937 81.59043139 -16.33089343 80.55195931 -13.953125 79.390625 C-13.22222656 79.05675781 -12.49132812 78.72289062 -11.73828125 78.37890625 C-9.41821142 77.09449122 -8.97370146 75.79626952 -7.953125 73.390625 C-6.963125 71.905625 -6.963125 71.905625 -5.953125 70.390625 C0.36308727 71.70439715 6.43063774 73.34512843 12.546875 75.390625 C13.35640625 75.65101563 14.1659375 75.91140625 15 76.1796875 C17.03668197 76.85630332 19.04509565 77.61682794 21.046875 78.390625 C21.376875 79.050625 21.706875 79.710625 22.046875 80.390625 C16.29386114 93.62255687 5.80615528 101.05805735 -6.96606445 106.62353516 C-22.51210388 112.62496726 -39.6785 111.09275274 -54.8515625 104.890625 C-59.57409418 102.60668021 -64.03596783 99.90103448 -67.953125 96.390625 C-67.953125 95.730625 -67.953125 95.070625 -67.953125 94.390625 C-68.5203125 94.19210937 -69.0875 93.99359375 -69.671875 93.7890625 C-72.85246743 91.83931577 -74.50826383 89.10915947 -76.453125 86.015625 C-77.04577148 85.08375366 -77.04577148 85.08375366 -77.65039062 84.13305664 C-86.44532007 69.80847939 -88.39400264 51.67365763 -85.3046875 35.25390625 C-81.30903011 20.00552142 -72.378939 7.02410458 -58.8359375 -1.10546875 C-40.47723783 -10.68283917 -17.88337699 -10.83445467 0 0 Z M-46.953125 21.390625 C-46.953125 22.050625 -46.953125 22.710625 -46.953125 23.390625 C-47.613125 23.390625 -48.273125 23.390625 -48.953125 23.390625 C-49.96044899 25.32432731 -50.95875788 27.26272806 -51.953125 29.203125 C-52.51 30.28207031 -53.066875 31.36101562 -53.640625 32.47265625 C-55.15823119 35.31335966 -55.15823119 35.31335966 -54.953125 38.390625 C-39.113125 38.390625 -23.273125 38.390625 -6.953125 38.390625 C-10.60751518 26.15585828 -10.60751518 26.15585828 -19.578125 17.953125 C-28.63236619 13.76134667 -39.40763555 14.15953095 -46.953125 21.390625 Z " fill="#0CB2A9" transform="translate(693.953125,274.609375)"/>
<path d="M0 0 C0.87720703 -0.01611328 1.75441406 -0.03222656 2.65820312 -0.04882812 C15.85994363 -0.05855675 26.90977534 5.15937179 36.48828125 14.0859375 C49.10998009 27.63465377 48.72493187 45.55652431 48.66015625 62.9453125 C48.65828713 64.43317619 48.65686556 65.9210405 48.65586853 67.40890503 C48.65208222 71.29188793 48.64228594 75.17483239 48.63116455 79.05780029 C48.62086607 83.03331991 48.61635298 87.00884584 48.61132812 90.984375 C48.6006595 98.76043608 48.58309501 106.53645772 48.5625 114.3125 C39.3225 114.3125 30.0825 114.3125 20.5625 114.3125 C20.2325 111.0125 19.9025 107.7125 19.5625 104.3125 C19.05203125 104.83199219 18.5415625 105.35148437 18.015625 105.88671875 C9.30961226 114.23769905 0.22844997 117.98182163 -11.84375 118.44921875 C-23.87294289 117.99158641 -34.60761237 114.65008991 -43.54296875 106.5078125 C-50.06147246 98.95441233 -52.84630764 89.87847036 -52.71484375 80.0625 C-51.89206506 71.90424369 -48.2798523 64.06947345 -42.4375 58.3125 C-28.6486449 47.07884176 -12.50788282 45.92841491 4.5625 47.3125 C9.42118582 47.98874336 14.1597001 49.11110005 18.5625 51.3125 C18.24424469 42.79917051 17.18279662 35.46519319 11.4375 28.875 C5.05250217 25.40489249 -1.40619711 24.5990719 -8.40625 26.55859375 C-15.104099 29.04452617 -17.16085369 32.32519517 -21.4375 38.3125 C-30.3475 36.6625 -39.2575 35.0125 -48.4375 33.3125 C-46.55964959 25.80109836 -44.96591805 22.14983142 -40.4375 16.3125 C-39.95667969 15.69246094 -39.47585938 15.07242187 -38.98046875 14.43359375 C-29.16520746 3.3261968 -14.18508089 -0.05188398 0 0 Z M-21.4375 75.3125 C-23.00809414 79.8807335 -22.92039475 83.19974253 -21 87.625 C-16.53348816 92.30939046 -12.07031039 94.50552781 -5.5625 94.8125 C2.11134096 94.43529123 8.33931083 92.09563575 13.5625 86.375 C17.5040317 81.35766201 18.86208832 77.75364897 18.5625 71.3125 C17.16800891 70.829441 15.77183293 70.35124483 14.375 69.875 C13.59769531 69.60816406 12.82039063 69.34132813 12.01953125 69.06640625 C0.66289586 65.58177886 -13.15530377 65.78797434 -21.4375 75.3125 Z " fill="#0CB2A9" transform="translate(1209.4375,266.6875)"/>
<path d="M0 0 C9.49492577 7.64261307 14.81757742 18.10082862 16.54296875 30.046875 C16.81616722 35.80988213 16.77639286 41.56395597 16.73828125 47.33203125 C16.73454517 49.00068491 16.73170101 50.66934079 16.72970581 52.33799744 C16.72211615 56.70273023 16.70250843 61.06732722 16.68029785 65.43200684 C16.65973819 69.89670984 16.65068257 74.36143505 16.640625 78.82617188 C16.61925755 87.56647513 16.58411415 96.30664246 16.54296875 105.046875 C7.63296875 105.046875 -1.27703125 105.046875 -10.45703125 105.046875 C-11.44703125 100.591875 -11.44703125 100.591875 -12.45703125 96.046875 C-13.50890625 97.09875 -14.56078125 98.150625 -15.64453125 99.234375 C-23.7536993 106.36061359 -34.73199817 109.33767645 -45.39111328 109.18066406 C-57.46132395 108.39899596 -67.8375528 104.02163858 -76.26953125 95.359375 C-82.55383819 87.628216 -84.17466393 79.21411055 -83.83203125 69.40625 C-82.80472798 60.20332487 -78.56667181 52.9624465 -71.45703125 47.046875 C-60.53724928 40.30722158 -50.3864508 37.66230532 -37.64453125 37.734375 C-36.6812793 37.73638916 -35.71802734 37.73840332 -34.72558594 37.74047852 C-26.97601073 37.8495263 -19.50224754 38.52426686 -12.45703125 42.046875 C-12.88104913 39.46066668 -13.32060265 36.87877281 -13.76953125 34.296875 C-13.88748047 33.56726563 -14.00542969 32.83765625 -14.12695312 32.0859375 C-14.8610644 27.94479699 -15.63802123 25.30018628 -18.45703125 22.046875 C-18.45703125 21.386875 -18.45703125 20.726875 -18.45703125 20.046875 C-19.24078125 19.7375 -20.02453125 19.428125 -20.83203125 19.109375 C-23.45703125 18.046875 -23.45703125 18.046875 -25.45703125 17.046875 C-27.70358712 16.89710461 -29.95566893 16.82537326 -32.20703125 16.796875 C-34.02460937 16.75820313 -34.02460937 16.75820313 -35.87890625 16.71875 C-40.61645308 17.15319753 -43.8490218 18.53325604 -47.3203125 21.80078125 C-48.03767578 22.69603516 -48.03767578 22.69603516 -48.76953125 23.609375 C-49.26066406 24.20878906 -49.75179687 24.80820312 -50.2578125 25.42578125 C-51.52837219 27.04588909 -51.52837219 27.04588909 -52.45703125 29.046875 C-61.36703125 27.396875 -70.27703125 25.746875 -79.45703125 24.046875 C-77.99913448 13.84159763 -73.77928773 7.3561797 -65.87109375 0.796875 C-61.94549424 -2.04886704 -57.94725455 -4.1405578 -53.45703125 -5.953125 C-52.69648437 -6.2728125 -51.9359375 -6.5925 -51.15234375 -6.921875 C-34.24754792 -12.7548397 -14.59791183 -9.85833007 0 0 Z M-50.45703125 63.609375 C-53.31831487 67.09656441 -53.87145107 69.38350621 -53.796875 73.94921875 C-53.18775184 77.70897892 -51.19523147 79.54171309 -48.45703125 82.046875 C-42.35005029 85.63921674 -36.0873718 86.1040678 -29.25 84.54296875 C-22.53968883 82.29764474 -17.52881552 78.22593127 -14.203125 71.9609375 C-12.92882534 68.69179178 -12.70183392 65.53531303 -12.45703125 62.046875 C-24.72925865 57.71068799 -39.61646954 54.34972854 -50.45703125 63.609375 Z " fill="#0CB2A8" transform="translate(1026.45703125,275.953125)"/>
<path d="M0 0 C0.82338867 0.00499512 1.64677734 0.00999023 2.49511719 0.01513672 C11.92898836 0.2817861 21.29101713 2.91013834 28.19921875 9.6640625 C41.46993534 25.37498642 41.92095149 43.62791418 41.84765625 63.23046875 C41.84578658 64.7169032 41.84436527 66.20333827 41.84336853 67.68977356 C41.83958656 71.5645219 41.82979423 75.43923157 41.81866455 79.31396484 C41.80653782 83.9831182 41.80202758 88.65228462 41.79621124 93.32144928 C41.78657931 100.38099292 41.76739281 107.44045204 41.75 114.5 C31.52 114.5 21.29 114.5 10.75 114.5 C10.72421875 109.56289063 10.6984375 104.62578125 10.671875 99.5390625 C10.6466817 96.39448074 10.62032989 93.24999281 10.58984375 90.10546875 C10.54165934 85.12418372 10.49755856 80.14311612 10.47900391 75.16162109 C10.46375933 71.14130886 10.42917783 67.12156897 10.38169098 63.10151291 C10.36695699 61.5747312 10.35896361 60.04786773 10.35811615 58.52101517 C10.46170552 44.74561552 10.46170552 44.74561552 4.26776123 32.82901001 C-0.48195785 28.64661186 -4.62742879 28.21072697 -10.68359375 28.28125 C-16.43733052 28.77167505 -21.18167465 31.43167465 -25.25 35.5 C-30.35594442 43.07488277 -29.85459113 51.00460729 -29.859375 59.8125 C-29.87437374 61.39292074 -29.89110442 62.97332591 -29.90948486 64.55371094 C-29.95298109 68.68988813 -29.97311779 72.82585393 -29.98822021 76.96221924 C-30.01131497 81.93764341 -30.063724 86.91283658 -30.11116028 91.88807678 C-30.17977264 99.42544447 -30.21138397 106.96215034 -30.25 114.5 C-40.48 114.5 -50.71 114.5 -61.25 114.5 C-61.25 77.87 -61.25 41.24 -61.25 3.5 C-52.01 3.5 -42.77 3.5 -33.25 3.5 C-32.10185003 5.79629994 -31.94230191 7.57698086 -31.6875 10.125 C-31.56181641 11.35089844 -31.56181641 11.35089844 -31.43359375 12.6015625 C-31.37300781 13.22804688 -31.31242188 13.85453125 -31.25 14.5 C-30.775625 13.79875 -30.30125 13.0975 -29.8125 12.375 C-21.9436423 3.54652551 -11.61840263 -0.09365806 0 0 Z " fill="#0CB2A9" transform="translate(796.25,266.5)"/>
<path d="M0 0 C10.89 0 21.78 0 33 0 C41.44054096 24.63159325 49.81563824 49.28200973 58 74 C60.04431296 69.40478405 61.74275927 64.88586208 63.17651367 60.05493164 C63.37202316 59.40042023 63.56753265 58.74590881 63.76896667 58.07156372 C64.40594361 55.93558801 65.03700218 53.79791432 65.66796875 51.66015625 C66.11171942 50.1678953 66.55584249 48.67574505 67.00032043 47.18370056 C68.16300394 43.2771263 69.32065649 39.36907905 70.47723389 35.46069336 C71.86929089 30.76045243 73.26764924 26.06208281 74.66493988 21.36339569 C76.7814325 14.24367844 78.88995448 7.12164493 81 0 C91.89 0 102.78 0 114 0 C108.10330093 17.18102967 101.72933156 34.16730091 95.30137634 51.15427399 C93.84283016 55.00921296 92.3858596 58.86474745 90.92871094 62.72021484 C89.19870674 67.29757107 87.46853838 71.87486445 85.73721313 76.45172119 C82.60103205 84.74489126 79.48412996 93.04480423 76.39453125 101.35546875 C75.45989935 103.86062935 74.52466106 106.36556248 73.58914185 108.87039185 C73.04007943 110.34561394 72.49380271 111.82187659 71.95065308 113.29928589 C66.49405435 128.13821447 60.19911956 142.5507544 46.1171875 151.0625 C40.21724362 153.67502128 34.66785295 154.38589411 28.3125 154.375 C27.52955566 154.37628906 26.74661133 154.37757813 25.93994141 154.37890625 C19.13326347 154.25608737 13.24635704 152.74349799 7 150 C7.62100473 147.1240849 8.24666165 144.24931373 8.875 141.375 C9.04902344 140.56675781 9.22304687 139.75851562 9.40234375 138.92578125 C10.37070225 134.51437032 11.4699227 130.25940436 13 126 C13.969375 126.165 14.93875 126.33 15.9375 126.5 C22.68340892 127.41124173 28.98967985 128.03929081 35.1328125 124.59765625 C38.98452806 121.30194147 41.43641929 116.77579046 43 112 C42.53276705 107.38413123 41.1525897 103.49414176 39.39453125 99.21875 C39.12270523 98.55250107 38.85087921 97.88625214 38.57081604 97.19981384 C37.65712098 94.96414245 36.7347563 92.73215185 35.8125 90.5 C35.15839232 88.90398306 34.50492786 87.30770238 33.85205078 85.71118164 C32.39613907 82.152838 30.93694651 78.59586056 29.47607422 75.03955078 C26.73204041 68.35356387 24.00807278 61.65945305 21.28515625 54.96484375 C20.2977753 52.53775833 19.31038923 50.110675 18.32299805 47.68359375 C17.83471527 46.48331543 17.3464325 45.28303711 16.84335327 44.04638672 C14.48828411 38.25814897 12.13167497 32.47054136 9.7734375 26.68359375 C9.3655751 25.68166489 8.95771271 24.67973602 8.53749084 23.64744568 C8.14532883 22.68540726 7.75316681 21.72336884 7.34912109 20.73217773 C6.77928497 19.33175735 6.77928497 19.33175735 6.19793701 17.90304565 C5.34377426 15.83309253 4.47317942 13.76988822 3.59161377 11.7114563 C3.13292908 10.6375766 2.67424438 9.5636969 2.20166016 8.45727539 C1.78067047 7.48375626 1.35968079 6.51023712 0.92593384 5.50721741 C0 3 0 3 0 0 Z " fill="#0CB2A9" transform="translate(1497,270)"/>
<path d="M0 0 C9.9 0 19.8 0 30 0 C30 12.54 30 25.08 30 38 C39.9 38 49.8 38 60 38 C60 45.92 60 53.84 60 62 C50.1 62 40.2 62 30 62 C30.07413069 69.2596953 30.15708565 76.5181887 30.26245117 83.77734375 C30.29562363 86.24472749 30.32367926 88.71218571 30.34643555 91.1796875 C30.38012213 94.73469666 30.43244702 98.28902798 30.48828125 101.84375 C30.49467117 102.93989624 30.5010611 104.03604248 30.50764465 105.16540527 C30.6381091 112.02323527 30.84300523 118.93867174 36.0625 124 C43.95255862 126.6859774 51.38586912 124.72164678 59 122 C61.72927213 129.53798969 63.42467319 137.14571103 65 145 C51.34216495 152.199905 38.47930072 154.8557396 23.19921875 151.07421875 C15.63346202 148.53382424 9.33192522 143.73561543 5 137 C1.60539786 130.05847382 -0.12981931 123.66417367 -0.11352539 115.92456055 C-0.11344986 114.72369308 -0.11337433 113.52282562 -0.11329651 112.28556824 C-0.10813522 110.99894791 -0.10297394 109.71232758 -0.09765625 108.38671875 C-0.09578956 107.04865064 -0.09436684 105.71058185 -0.09336853 104.37251282 C-0.08956314 100.8626413 -0.07974988 97.35281161 -0.06866455 93.84295654 C-0.05840777 90.25663824 -0.05386179 86.67031314 -0.04882812 83.08398438 C-0.03812572 76.05597074 -0.02054506 69.02799169 0 62 C-6.27 62 -12.54 62 -19 62 C-19 54.08 -19 46.16 -19 38 C-12.73 38 -6.46 38 0 38 C0 25.46 0 12.92 0 0 Z " fill="#0CB2A9" transform="translate(868,232)"/>
<path d="M0 0 C9.9 0 19.8 0 30 0 C30 51.81 30 103.62 30 157 C20.1 157 10.2 157 0 157 C0 105.19 0 53.38 0 0 Z " fill="#0CB2A8" transform="translate(1333,224)"/>
<path d="M0 0 C9.9 0 19.8 0 30 0 C30 51.81 30 103.62 30 157 C20.1 157 10.2 157 0 157 C0 105.19 0 53.38 0 0 Z " fill="#0CB2A8" transform="translate(1280,224)"/>
<path d="M0 0 C9.9 0 19.8 0 30 0 C30 51.81 30 103.62 30 157 C20.1 157 10.2 157 0 157 C0 105.19 0 53.38 0 0 Z " fill="#0CB1A8" transform="translate(1066,224)"/>
<path d="M0 0 C1.84658203 0.13535156 1.84658203 0.13535156 3.73046875 0.2734375 C6.8125 0.625 6.8125 0.625 8.8125 1.625 C7.8225 11.525 6.8325 21.425 5.8125 31.625 C2.1825 31.295 -1.4475 30.965 -5.1875 30.625 C-11.3071446 31.42638203 -17.48160602 32.32623171 -22.1875 36.625 C-26.61346333 42.86733269 -28.28645851 48.26489392 -28.39282227 55.86230469 C-28.41276749 57.12330994 -28.43271271 58.38431519 -28.45326233 59.68353271 C-28.47024401 61.05464557 -28.48712291 62.4257597 -28.50390625 63.796875 C-28.52448835 65.20363967 -28.54548515 66.61039833 -28.56687927 68.01715088 C-28.62197035 71.71273927 -28.67143655 75.40838226 -28.71972656 79.10406494 C-28.77003649 82.87801951 -28.82562157 86.65189613 -28.88085938 90.42578125 C-28.98877985 97.82546083 -29.08790341 105.22518493 -29.1875 112.625 C-39.4175 112.625 -49.6475 112.625 -60.1875 112.625 C-60.1875 75.995 -60.1875 39.365 -60.1875 1.625 C-50.9475 1.625 -41.7075 1.625 -32.1875 1.625 C-30.37634044 3.43615956 -30.80550552 6.23778227 -30.625 8.6875 C-30.49931641 10.34458984 -30.49931641 10.34458984 -30.37109375 12.03515625 C-30.31050781 12.88980469 -30.24992188 13.74445313 -30.1875 14.625 C-29.89359375 14.11710937 -29.5996875 13.60921875 -29.296875 13.0859375 C-24.61909272 5.90796124 -17.94758146 2.25082944 -9.765625 -0.05859375 C-6.44290479 -0.46638214 -3.33571077 -0.26010811 0 0 Z " fill="#0CB2A9" transform="translate(591.1875,268.375)"/>
<path d="M0 0 C-0.33 0.66 -0.66 1.32 -1 2 C-3.39688596 2.6632892 -5.7599588 3.22600192 -8.1875 3.75 C-24.44676022 7.57656578 -42.40991535 15.61487303 -52 30 C-52.66 30 -53.32 30 -54 30 C-54.38091797 31.05574219 -54.38091797 31.05574219 -54.76953125 32.1328125 C-56.12727606 35.29657343 -57.81636227 37.98558103 -59.6875 40.875 C-67.18023034 52.78726384 -72.17859917 65.71735693 -77.16357422 78.82177734 C-78.44796576 82.16659384 -79.78488324 85.48970323 -81.125 88.8125 C-83.00356529 93.48393231 -84.83619891 98.16848982 -86.625 102.875 C-88.28960971 107.23595835 -90.08373219 111.49381203 -92.03125 115.734375 C-93.55092925 119.28846357 -94.75551201 122.95008341 -95.97265625 126.6171875 C-97.0102415 129.02375404 -98.02661628 130.31172271 -100 132 C-99.43819772 126.95625504 -98.30631199 122.67560443 -96.453125 117.95703125 C-96.20004578 117.30731857 -95.94696655 116.6576059 -95.68621826 115.98820496 C-94.88111588 113.92682478 -94.06562867 111.86973442 -93.25 109.8125 C-92.7180927 108.45273089 -92.18683775 107.09270642 -91.65625 105.73242188 C-88.54341612 97.77671452 -85.31973619 89.87188022 -82 82 C-81.52433594 80.86304688 -81.04867188 79.72609375 -80.55859375 78.5546875 C-80.18863281 77.67039062 -79.81867188 76.78609375 -79.4375 75.875 C-77.90421027 72.19989617 -76.40258963 68.51528511 -74.9375 64.8125 C-73.07691044 60.14990704 -71.1145262 55.55323063 -69 51 C-68.55785156 50.03835937 -68.11570312 49.07671875 -67.66015625 48.0859375 C-64.44922796 41.35746708 -60.85109061 35.65116609 -56 30 C-55.28972656 29.15695313 -54.57945312 28.31390625 -53.84765625 27.4453125 C-49.82185205 22.77159407 -49.82185205 22.77159407 -48 21 C-47.34 21 -46.68 21 -46 21 C-45.7834375 20.42121094 -45.566875 19.84242188 -45.34375 19.24609375 C-39.29801609 9.14057922 -22.0438737 3.63624405 -11.296875 0.71484375 C-7.35122499 -0.14067041 -4.0102077 -0.32081662 0 0 Z " fill="#09A39B" transform="translate(340,128)"/>
<path d="M0 0 C14.45317257 2.40534551 26.4018351 7.42873533 35.71484375 19.16015625 C37.2590798 21.38809987 38.64806334 23.65086225 40 26 C40.45246094 26.74765625 40.90492188 27.4953125 41.37109375 28.265625 C49.02603009 41.98545156 49.30337586 57.80599266 45.65576172 72.77099609 C43.25590202 80.92837476 39.52335756 90.33766726 33 96 C33.54122559 91.14359736 35.0177985 87.7568871 37.375 83.5 C44.71372622 69.48376137 46.1213994 53.62886624 42.1796875 38.3125 C39.15860258 29.82945362 34.59676057 22.1738913 28 16 C27.46117187 15.46375 26.92234375 14.9275 26.3671875 14.375 C18.26074383 6.90518803 8.74797977 4.25674458 -2 3 C-1.34 2.67 -0.68 2.34 0 2 C0 1.34 0 0.68 0 0 Z " fill="#09A49C" transform="translate(357,157)"/>
<path d="M0 0 C1 2 1 2 0.41381836 4.109375 C-0.08686157 5.41648437 -0.08686157 5.41648437 -0.59765625 6.75 C-0.97293457 7.73871094 -1.34821289 8.72742188 -1.73486328 9.74609375 C-2.1523584 10.81988281 -2.56985352 11.89367187 -3 13 C-3.42394043 14.10472656 -3.84788086 15.20945312 -4.28466797 16.34765625 C-5.65620672 19.90353457 -7.04486852 23.45233357 -8.4375 27 C-9.13456055 28.79050781 -9.13456055 28.79050781 -9.84570312 30.6171875 C-11.98237914 36.06466832 -14.16888968 41.44886562 -16.6484375 46.75 C-18.94914253 51.7276489 -20.66327768 56.73830104 -22.1875 62 C-22.43435547 62.81210937 -22.68121094 63.62421875 -22.93554688 64.4609375 C-25.92452339 74.56766343 -27.33376171 84.20998511 -27.25 94.75 C-27.25773438 95.73871094 -27.26546875 96.72742188 -27.2734375 97.74609375 C-27.25868944 103.26924134 -26.69334894 107.75868184 -25 113 C-25 114.32 -25 115.64 -25 117 C-25.99 116.67 -26.98 116.34 -28 116 C-35.70887516 94.92388339 -29.75131551 67.46584655 -20.66015625 47.79785156 C-20.36238281 47.16073242 -20.06460938 46.52361328 -19.7578125 45.8671875 C-17.93467727 41.94395989 -16.41685659 37.93822124 -14.9375 33.875 C-12.60904158 27.50623359 -10.03708679 21.28824483 -7.296875 15.0859375 C-6.03875621 12.09222111 -4.99119023 9.09094849 -4 6 C-2.27027027 1.13513514 -2.27027027 1.13513514 0 0 Z " fill="#09A29B" transform="translate(239,262)"/>
<path d="M0 0 C0 0.99 0 1.98 0 3 C-0.66 3 -1.32 3 -2 3 C-2 3.66 -2 4.32 -2 5 C-2.66 5 -3.32 5 -4 5 C-4.31517578 5.80630859 -4.31517578 5.80630859 -4.63671875 6.62890625 C-6.51940795 9.90338288 -9.12213364 12.3317159 -11.8125 14.9375 C-12.59463867 15.70610352 -12.59463867 15.70610352 -13.39257812 16.49023438 C-14.42965302 17.50918312 -15.46845456 18.52637769 -16.5090332 19.54174805 C-19.36046844 22.330617 -22.17930722 25.14970307 -24.94921875 28.01953125 C-25.80966797 28.90705078 -25.80966797 28.90705078 -26.6875 29.8125 C-27.26886719 30.41707031 -27.85023438 31.02164062 -28.44921875 31.64453125 C-30 33 -30 33 -32 33 C-32.2475 33.61875 -32.495 34.2375 -32.75 34.875 C-34.23740369 37.40358627 -35.43678009 37.71839004 -38 39 C-38.70151152 40.3153341 -39.36525925 41.65117592 -40 43 C-42 45.25 -42 45.25 -44 47 C-44.66 47 -45.32 47 -46 47 C-46.2357373 47.56170898 -46.47147461 48.12341797 -46.71435547 48.70214844 C-48.30400372 51.54335036 -50.25343276 53.47807285 -52.5703125 55.765625 C-53.46621094 56.65507812 -54.36210937 57.54453125 -55.28515625 58.4609375 C-56.22230469 59.38132812 -57.15945313 60.30171875 -58.125 61.25 C-59.07988637 62.19484856 -60.03431859 63.14015633 -60.98828125 64.0859375 C-63.32109087 66.39518338 -65.65844086 68.69963203 -68 71 C-70.81878012 69.71825282 -72.85241496 68.38992385 -75.015625 66.1796875 C-75.80839844 65.37724609 -75.80839844 65.37724609 -76.6171875 64.55859375 C-77.15601563 64.00300781 -77.69484375 63.44742188 -78.25 62.875 C-78.80429687 62.31167969 -79.35859375 61.74835938 -79.9296875 61.16796875 C-81.29104485 59.78313972 -82.64614859 58.39216796 -84 57 C-83.34 56.34 -82.68 55.68 -82 55 C-80 56.375 -80 56.375 -78 58 C-78 58.66 -78 59.32 -78 60 C-77.4225 60.2475 -76.845 60.495 -76.25 60.75 C-74 62 -74 62 -72.0625 64.1875 C-71.381875 64.785625 -70.70125 65.38375 -70 66 C-67.29294488 65.85974801 -67.29294488 65.85974801 -65 65 C-65 64.34 -65 63.68 -65 63 C-63.125 60.875 -63.125 60.875 -61 59 C-60.34 59 -59.68 59 -59 59 C-59 58.34 -59 57.68 -59 57 C-56.625 54.375 -56.625 54.375 -54 52 C-53.34 52 -52.68 52 -52 52 C-51.34 50.68 -50.68 49.36 -50 48 C-49.34 48 -48.68 48 -48 48 C-48 47.34 -48 46.68 -48 46 C-47.34 46 -46.68 46 -46 46 C-46 45.34 -46 44.68 -46 44 C-45.34 44 -44.68 44 -44 44 C-43.773125 43.443125 -43.54625 42.88625 -43.3125 42.3125 C-41.62449964 39.33840412 -39.53323483 37.27991135 -37 35 C-36.34 35 -35.68 35 -35 35 C-35 34.34 -35 33.68 -35 33 C-34.34 33 -33.68 33 -33 33 C-33 32.34 -33 31.68 -33 31 C-32.34 31 -31.68 31 -31 31 C-30.34 29.68 -29.68 28.36 -29 27 C-28.34 27 -27.68 27 -27 27 C-26.773125 26.443125 -26.54625 25.88625 -26.3125 25.3125 C-24.62449964 22.33840412 -22.53323483 20.27991135 -20 18 C-19.34 18 -18.68 18 -18 18 C-17.34 16.68 -16.68 15.36 -16 14 C-15.34 14 -14.68 14 -14 14 C-13.34 12.68 -12.68 11.36 -12 10 C-11.34 10 -10.68 10 -10 10 C-9.62875 9.1646875 -9.62875 9.1646875 -9.25 8.3125 C-7.35861283 4.81343373 -5.60990894 1.58135601 -1.75 0.1875 C-1.1725 0.125625 -0.595 0.06375 0 0 Z " fill="#0AA098" transform="translate(410,412)"/>
<path d="M0 0 C0.66 0 1.32 0 2 0 C1.6875 1.9375 1.6875 1.9375 1 4 C0.01 4.33 -0.98 4.66 -2 5 C-2.67139477 6.33095879 -3.33705771 7.66481097 -4 9 C-5.55713051 10.67012582 -7.16734624 12.29150867 -8.8125 13.875 C-12.90631635 17.86168468 -12.90631635 17.86168468 -16.625 22.1875 C-19.19356407 25.22922061 -21.99866824 27.63931719 -25.0234375 30.2109375 C-27.43914862 32.39749026 -29.4360671 34.79988604 -31.5 37.3125 C-33.57711077 39.64924962 -35.94066163 41.54951737 -38.34765625 43.53515625 C-40.25141992 45.14903343 -40.25141992 45.14903343 -42.5 48 C-44.44681821 50.33618185 -46.13044709 52.03430755 -48.4375 53.9375 C-50.89367091 55.96927853 -52.97280842 58.04034088 -55 60.5 C-57.00982958 62.93745289 -59.06254711 64.99017042 -61.5 67 C-65.12153486 69.98996476 -68.00354575 73.40251278 -71 77 C-73.1875 79.4375 -73.1875 79.4375 -75 81 C-75.99 81 -76.98 81 -78 81 C-76.70722863 78.15268674 -75.35425174 76.11038088 -73.13012695 73.91894531 C-72.5522493 73.34444641 -71.97437164 72.76994751 -71.37898254 72.17803955 C-70.4430854 71.26233185 -70.4430854 71.26233185 -69.48828125 70.328125 C-68.51860664 69.36625275 -68.51860664 69.36625275 -67.52934265 68.38494873 C-65.46175974 66.33515238 -63.38763776 64.29214555 -61.3125 62.25 C-59.25603754 60.22133738 -57.20111681 58.1911744 -55.1492157 56.15789795 C-53.87423441 54.89497334 -52.59659246 53.6347266 -51.31575012 52.37774658 C-47.56580491 48.6690564 -44.04693153 44.83419731 -40.63908386 40.80804443 C-38.46793504 38.41308855 -36.04823285 36.41878319 -33.55859375 34.3671875 C-31.39932462 32.47309177 -29.74757486 30.27184731 -28 28 C-26.3545622 26.31237149 -24.68711423 24.6459651 -23 23 C-21.7934375 21.7625 -21.7934375 21.7625 -20.5625 20.5 C-18.68340671 18.66673825 -16.84226407 17.02048835 -14.8125 15.375 C-11.88119654 13.12277665 -11.88119654 13.12277665 -10 10 C-9.34 10 -8.68 10 -8 10 C-7.773125 9.443125 -7.54625 8.88625 -7.3125 8.3125 C-5.63848923 5.36305245 -3.45043651 3.3247731 -1 1 C-0.67 0.67 -0.34 0.34 0 0 Z " fill="#0EA39B" transform="translate(436,425)"/>
<path d="M0 0 C7.95133991 9.62178947 6.7901971 24.21910546 6 36 C3.95091914 54.58235091 -7.71273733 70.59920415 -20 84 C-20.66 83.67 -21.32 83.34 -22 83 C-20.38230102 79.20739462 -17.94436153 76.46943339 -15.25 73.375 C-8.15873731 65.0228134 -3.1950326 56.54360757 0 46 C0.35964844 44.8346875 0.71929687 43.669375 1.08984375 42.46875 C2.48077166 36.75288458 2.32921539 30.97538706 2.3125 25.125 C2.32861328 24.00480469 2.34472656 22.88460938 2.36132812 21.73046875 C2.36506375 15.32760701 1.75005381 9.95232126 -0.45239258 3.92138672 C-1 2 -1 2 0 0 Z " fill="#09A59D" transform="translate(461,341)"/>
<path d="M0 0 C13.46586598 4.19637076 26.09699569 12.66209509 33.99609375 24.51074219 C34.18359375 27.26074219 34.18359375 27.26074219 33.99609375 29.51074219 C29.99609375 24.51074219 29.99609375 24.51074219 28.24609375 22.13574219 C20.36207977 12.93772588 10.59951156 7.09995976 -1.10546875 4.05371094 C-3.00390625 3.51074219 -3.00390625 3.51074219 -4.00390625 2.51074219 C-9.52584902 1.91789557 -14.362469 1.51300582 -19.19140625 4.44824219 C-21.9724509 9.14724867 -22.69577446 13.43926663 -21.48828125 18.79980469 C-20.21035964 22.53840514 -19.33742075 24.28839919 -16.00390625 26.51074219 C-16.00390625 27.17074219 -16.00390625 27.83074219 -16.00390625 28.51074219 C-19.17423667 28.17106393 -20.00273232 27.51205028 -22.19140625 25.07324219 C-25.89655641 19.83492644 -25.60343748 14.79350097 -25.00390625 8.51074219 C-19.91298906 -1.85291067 -10.35054937 -2.52710781 0 0 Z " fill="#09A199" transform="translate(425.00390625,311.4892578125)"/>
<path d="M0 0 C12.93264469 0.6575921 23.95620555 6.72799235 35 13 C35 13.66 35 14.32 35 15 C35.59425781 15.27972656 36.18851562 15.55945313 36.80078125 15.84765625 C44.23826631 19.7447399 53.17126717 28.36297819 55.7578125 36.3359375 C55.83773437 36.88507813 55.91765625 37.43421875 56 38 C56.66 38 57.32 38 58 38 C58.84584998 39.55575978 59.67618399 41.1199612 60.5 42.6875 C60.9640625 43.55761719 61.428125 44.42773438 61.90625 45.32421875 C63.04818792 48.11788829 63.21504208 50.01629113 63 53 C60.12835321 50.51573079 58.87392496 47.86905571 57.3125 44.4375 C53.99918345 37.61206791 49.77726724 31.59052594 44.26171875 26.34765625 C43 25 43 25 43 23 C42.12214844 22.59007812 42.12214844 22.59007812 41.2265625 22.171875 C39.05577292 21.02935417 37.29494256 19.76961411 35.375 18.25 C24.15581228 9.74747326 12.5440546 5.45805649 -1 2 C-0.67 1.34 -0.34 0.68 0 0 Z " fill="#09A49B" transform="translate(365,128)"/>
<path d="M0 0 C6.93670787 6.93670787 6.03446326 19.81126603 6.125 28.875 C5.937601 47.86476569 5.937601 47.86476569 2 57 C1.60463348 58.28557889 1.22866817 59.57733032 0.875 60.875 C0 64 0 64 -1 66 C-1.66 66 -2.32 66 -3 66 C-3.495 66.99 -3.495 66.99 -4 68 C-2.6781886 61.89933202 -1.22766673 55.84516085 0.31640625 49.796875 C1.98207559 42.98190787 2.22967029 36.62982394 2.25 29.625 C2.25394775 28.46427979 2.25789551 27.30355957 2.26196289 26.10766602 C2.20883485 18.25074047 1.48329271 11.06954319 -0.44140625 3.46484375 C-0.62574219 2.65144531 -0.81007813 1.83804688 -1 1 C-0.67 0.67 -0.34 0.34 0 0 Z " fill="#08A39C" transform="translate(429,183)"/>
<path d="M0 0 C0.99 0.33 1.98 0.66 3 1 C-0.14589875 4.27697787 -3.52897558 7.19919624 -7 10.12109375 C-11.20812793 14.07443269 -13.85110601 18.33371934 -16.375 23.5 C-16.82335205 24.41749023 -16.82335205 24.41749023 -17.28076172 25.35351562 C-18.19448804 27.23224142 -19.09771499 29.11575802 -20 31 C-20.53109375 32.093125 -21.0621875 33.18625 -21.609375 34.3125 C-24.81100796 41.04583116 -27.46395492 47.83356938 -29.82421875 54.90625 C-30.94724589 57.86119183 -32.28592588 60.35232355 -34 63 C-34.66 62.67 -35.32 62.34 -36 62 C-32.36043449 50.6981913 -28.06338723 39.73866416 -23 29 C-22.58363281 28.03320312 -22.16726563 27.06640625 -21.73828125 26.0703125 C-16.96746022 15.54443229 -9.31961262 6.84889114 0 0 Z " fill="#09A39B" transform="translate(320,166)"/>
<path d="M0 0 C0.33 0 0.66 0 1 0 C0.88325099 1.35490296 0.75606577 2.70890696 0.625 4.0625 C0.55539063 4.81660156 0.48578125 5.57070313 0.4140625 6.34765625 C0 9 0 9 -1 12.3125 C-2.0691899 16.25513774 -2.40866188 19.86313213 -2.625 23.9375 C-2.66367188 24.62134766 -2.70234375 25.30519531 -2.7421875 26.00976562 C-2.83522412 27.67279513 -2.91863787 29.33635847 -3 31 C5.3615541 27.54631461 13.35238566 23.5105321 21.08984375 18.8203125 C23 18 23 18 26 19 C22.96451092 22.26792345 19.40837638 23.96172208 15.4375 25.875 C13.99469743 26.58053648 12.55198902 27.28626555 11.109375 27.9921875 C10.40748047 28.3334668 9.70558594 28.67474609 8.98242188 29.02636719 C5.59803951 30.68854907 2.25868264 32.43951889 -1.08203125 34.1875 C-3 35 -3 35 -6 35 C-6.42319989 26.26562454 -6.1661978 18.16401081 -4.125 9.625 C-3.95129883 8.89418213 -3.77759766 8.16336426 -3.59863281 7.41040039 C-2.2828464 2.2828464 -2.2828464 2.2828464 0 0 Z " fill="#09A299" transform="translate(245,327)"/>
<path d="M0 0 C0.66 0 1.32 0 2 0 C1.46037648 4.08031121 -0.67347178 6.13041887 -3.4375 9.0625 C-5.87211376 11.66124502 -8.02195026 14.03292539 -10 17 C-10.66 17 -11.32 17 -12 17 C-12.24105469 17.57621094 -12.48210937 18.15242188 -12.73046875 18.74609375 C-14.24952518 21.44300316 -15.98359759 23.02328103 -18.3125 25.0625 C-19.20453125 25.84496094 -20.0965625 26.62742187 -21.015625 27.43359375 C-22.00046875 28.28050781 -22.9853125 29.12742187 -24 30 C-24.52658203 30.45391113 -25.05316406 30.90782227 -25.59570312 31.37548828 C-44.92090622 48 -44.92090622 48 -48 48 C-48 47.01 -48 46.02 -48 45 C-45.76953125 43.1328125 -45.76953125 43.1328125 -42.8125 41.125 C-38.16520021 37.91129508 -38.16520021 37.91129508 -34.0625 34.0625 C-31.89198903 31.89198903 -30.88703089 31.61864948 -28 31 C-27.67 30.01 -27.34 29.02 -27 28 C-25.328125 26.3515625 -25.328125 26.3515625 -23.25 24.625 C-20.01068544 21.87474714 -16.96891736 19.04504344 -14 16 C-13.46761719 15.48953125 -12.93523437 14.9790625 -12.38671875 14.453125 C-8.29499703 10.49749159 -4.83536473 6.32124365 -1.48046875 1.72265625 C-0.99191406 1.15417969 -0.50335938 0.58570313 0 0 Z " fill="#0AA099" transform="translate(386,255)"/>
<path d="M0 0 C0.66 0.33 1.32 0.66 2 1 C2 1.66 2 2.32 2 3 C0.03342035 4.57019094 -1.93137464 6.01193355 -4 7.4375 C-4.62720947 7.87634521 -5.25441895 8.31519043 -5.90063477 8.76733398 C-7.24294688 9.70445105 -8.58751075 10.63834938 -9.93408203 11.56933594 C-11.95128338 12.96626337 -13.95876736 14.37622078 -15.96484375 15.7890625 C-22.62557939 20.45526647 -29.36434457 24.95888874 -36.3125 29.1875 C-36.9408374 29.57429932 -37.5691748 29.96109863 -38.21655273 30.35961914 C-41.03585192 32.04373957 -42.65512615 33 -46 33 C-46 32.34 -46 31.68 -46 31 C-44.57739258 29.90869141 -44.57739258 29.90869141 -42.58203125 28.7265625 C-41.4849585 28.06769043 -41.4849585 28.06769043 -40.36572266 27.39550781 C-39.58503418 26.93499023 -38.8043457 26.47447266 -38 26 C-36.46152671 25.07149266 -34.92377057 24.14179606 -33.38671875 23.2109375 C-31.01716404 21.7801138 -28.64692328 20.35072613 -26.27148438 18.9296875 C-25.12196289 18.23359375 -25.12196289 18.23359375 -23.94921875 17.5234375 C-23.26174561 17.11013184 -22.57427246 16.69682617 -21.8659668 16.27099609 C-20.00251213 15.00171113 -18.57089723 13.60791436 -17 12 C-15.34372034 10.98288867 -13.67567672 9.98482755 -12 9 C-10.06952832 7.64445022 -8.1530164 6.26883093 -6.25 4.875 C-4.80367188 3.81925781 -4.80367188 3.81925781 -3.328125 2.7421875 C-1.1539755 1.20147056 -1.1539755 1.20147056 0 0 Z " fill="#0AA098" transform="translate(334,303)"/>
<path d="M0 0 C-3.62054067 3.01487401 -7.35081416 5.55298913 -11.375 8 C-11.94935791 8.35030273 -12.52371582 8.70060547 -13.11547852 9.06152344 C-16.0323986 10.83405933 -18.96423051 12.57379438 -21.9375 14.25 C-24.99592406 15.94405281 -24.99592406 15.94405281 -27.75 17.875 C-34.06485799 22.00394561 -40.66933716 26.01873977 -48 28 C-48 27.01 -48 26.02 -48 25 C-47.3915625 24.67128906 -46.783125 24.34257812 -46.15625 24.00390625 C-40.56656103 20.97067797 -34.9917157 17.91021482 -29.4375 14.8125 C-28.77403564 14.44278076 -28.11057129 14.07306152 -27.42700195 13.69213867 C-23.58627323 11.5284692 -19.81370218 9.2823582 -16.078125 6.94140625 C-15.26287354 6.43182373 -14.44762207 5.92224121 -13.60766602 5.3972168 C-12.01630765 4.39629685 -10.43063525 3.38626896 -8.85131836 2.36645508 C-7.7705603 1.68619263 -7.7705603 1.68619263 -6.66796875 0.9921875 C-6.03141357 0.58339355 -5.3948584 0.17459961 -4.73901367 -0.24658203 C-3 -1 -3 -1 0 0 Z " fill="#09A59C" transform="translate(331,346)"/>
<path d="M0 0 C0.99 0.33 1.98 0.66 3 1 C0.92351203 3.24311973 -1.02645128 4.74143725 -3.75 6.125 C-4.38421875 6.45757812 -5.0184375 6.79015625 -5.671875 7.1328125 C-8.73511315 8.27381732 -11.76412303 8.61700973 -15 9 C-13.56760415 10.79574993 -12.1288996 12.58646907 -10.6875 14.375 C-9.88699219 15.37273437 -9.08648437 16.37046875 -8.26171875 17.3984375 C-6.08378314 20.13480753 -6.08378314 20.13480753 -3 22 C-3 22.99 -3 23.98 -3 25 C-1.68 25.66 -0.36 26.32 1 27 C0.67 28.32 0.34 29.64 0 31 C-2.72507145 28.04703112 -5.44414122 25.08919684 -8.1484375 22.1171875 C-9.77807756 20.32662183 -11.42069873 18.56366191 -13.1015625 16.8203125 C-16.96941424 12.69582605 -16.96941424 12.69582605 -17.109375 9.51171875 C-16 7 -16 7 -12.65625 5.234375 C-11.27825132 4.71928494 -9.89227171 4.22516062 -8.5 3.75 C-3.90559461 2.4204016 -3.90559461 2.4204016 0 0 Z " fill="#08A59C" transform="translate(267,379)"/>
<path d="M0 0 C3.51393826 1.17131275 3.76612345 1.82035491 5.625 4.875 C10.19084983 11.9963628 15.48239575 18.66925475 21.5625 24.5625 C22.366875 25.366875 23.17125 26.17125 24 27 C24 27.66 24 28.32 24 29 C24.639375 29.28875 25.27875 29.5775 25.9375 29.875 C28 31 28 31 29 33 C28.34 33.66 27.68 34.32 27 35 C26.7525 34.38125 26.505 33.7625 26.25 33.125 C25.19188477 30.87953217 25.19188477 30.87953217 23.1171875 30.078125 C20.74742247 28.87138118 19.57873647 27.65407308 17.875 25.625 C16.97974609 24.56539063 16.97974609 24.56539063 16.06640625 23.484375 C15.38449219 22.66453125 14.70257813 21.8446875 14 21 C13.16339844 20.01515625 12.32679688 19.0303125 11.46484375 18.015625 C0 4.45401585 0 4.45401585 0 0 Z " fill="#0CA39A" transform="translate(222,399)"/>
<path d="M0 0 C9.20435535 1.40750706 15.78187464 3.62579499 21.7109375 11.171875 C26.88012238 18.50271901 26.32815031 25.23717137 26 34 C25.34 34 24.68 34 24 34 C23.98582031 33.17757812 23.97164063 32.35515625 23.95703125 31.5078125 C23.58681274 22.84269826 22.40262044 15.61785966 16.2421875 9.15625 C11.37876334 5.13949482 6.07926875 3.42015704 0 2 C0 1.34 0 0.68 0 0 Z " fill="#09A39B" transform="translate(411,340)"/>
<path d="M0 0 C0.88336837 2.4667645 1.1312406 3.63859372 0.22265625 6.140625 C-0.35162109 7.18476563 -0.35162109 7.18476563 -0.9375 8.25 C-1.31777344 8.95640625 -1.69804687 9.6628125 -2.08984375 10.390625 C-2.39019531 10.92171875 -2.69054687 11.4528125 -3 12 C-3.66 12 -4.32 12 -5 12 C-5.25265625 12.88945312 -5.5053125 13.77890625 -5.765625 14.6953125 C-7.03198058 18.0856189 -8.42718782 20.12903986 -10.75 22.875 C-13.91983299 26.67189614 -16.86796041 30.53062455 -19.67578125 34.6015625 C-20.11277344 35.06304687 -20.54976563 35.52453125 -21 36 C-21.99 36 -22.98 36 -24 36 C-22.34481556 32.20496385 -19.87050987 29.15084809 -17.3125 25.9375 C-12.80829144 20.18424571 -8.80638873 14.24093178 -5 8 C-4.02225921 6.43660736 -3.04323979 4.87401307 -2.0625 3.3125 C-1.381875 2.219375 -0.70125 1.12625 0 0 Z " fill="#08A39A" transform="translate(424,252)"/>
<path d="M0 0 C0.6875 1.625 0.6875 1.625 1 4 C0.07137808 6.03412421 -0.93753473 8.03247172 -2 10 C-2.66758109 11.99969496 -3.33401527 13.99977282 -4 16 C-5.29527049 19.39029563 -6.64706536 22.7573692 -8 26.125 C-8.35578125 27.01832031 -8.7115625 27.91164063 -9.078125 28.83203125 C-9.42359375 29.69441406 -9.7690625 30.55679687 -10.125 31.4453125 C-10.43695313 32.22406738 -10.74890625 33.00282227 -11.0703125 33.80517578 C-11.37710937 34.52946777 -11.68390625 35.25375977 -12 36 C-12.30679687 36.73331543 -12.61359375 37.46663086 -12.9296875 38.22216797 C-14 40 -14 40 -17 41 C-15.15012829 33.95750593 -12.55210422 27.41263577 -9.62109375 20.75390625 C-7.60924973 16.15802 -5.79417474 11.48441763 -4.00463867 6.7980957 C-2.92518856 4.03188844 -2.1249852 2.1249852 0 0 Z " fill="#09A29B" transform="translate(284,230)"/>
<path d="M0 0 C3.81936528 1.55603771 6.26044438 3.95604931 9 7 C9 7.66 9 8.32 9 9 C9.5775 9.2475 10.155 9.495 10.75 9.75 C13.32939979 11.18299988 15.06121592 12.78424676 17 15 C17 15.66 17 16.32 17 17 C17.639375 17.268125 18.27875 17.53625 18.9375 17.8125 C21 19 21 19 22 22 C22.99 22.33 23.98 22.66 25 23 C24.67 23.66 24.34 24.32 24 25 C18.16991087 22.53065789 14.14367068 17.47155468 9.75 13.0625 C8.81414062 12.14275391 7.87828125 11.22300781 6.9140625 10.27539062 C6.02976562 9.39173828 5.14546875 8.50808594 4.234375 7.59765625 C3.42194336 6.78820557 2.60951172 5.97875488 1.77246094 5.14477539 C0 3 0 3 0 0 Z " fill="#09A7A0" transform="translate(302,442)"/>
<path d="M0 0 C4.71363765 2.47665707 8.11300887 5.81351735 11.8125 9.5625 C12.40998047 10.15224609 13.00746094 10.74199219 13.62304688 11.34960938 C18 15.74657143 18 15.74657143 18 18 C18.598125 18.226875 19.19625 18.45375 19.8125 18.6875 C22.56351888 20.33811133 23.52484637 22.1972081 25 25 C23.0625 24.6875 23.0625 24.6875 21 24 C20.67 23.01 20.34 22.02 20 21 C19.01 20.67 18.02 20.34 17 20 C14.3125 17.5625 14.3125 17.5625 12 15 C12 14.34 12 13.68 12 13 C11.360625 12.731875 10.72125 12.46375 10.0625 12.1875 C8 11 8 11 7 8 C6.01 7.67 5.02 7.34 4 7 C1.8125 5.125 1.8125 5.125 0 3 C0 2.01 0 1.02 0 0 Z " fill="#0BA69E" transform="translate(286,468)"/>
<path d="M0 0 C0.66 0.66 1.32 1.32 2 2 C-1.51571964 6.79416314 -4.11116157 9.26230997 -10 11 C-16.45683849 11.74861896 -21.2550478 10.99736637 -27 8 C-27 6.68 -27 5.36 -27 4 C-26.34 4.474375 -25.68 4.94875 -25 5.4375 C-19.60944251 8.24508203 -15.04475432 8.55366349 -9.3125 6.875 C-5.17076117 5.33438781 -2.81881811 3.36439581 0 0 Z " fill="#08A39B" transform="translate(356,506)"/>
<path d="M0 0 C0.66 0 1.32 0 2 0 C1.77855441 9.74360585 -5.4226085 20.07643 -12 27 C-12.66 27 -13.32 27 -14 27 C-14 27.66 -14 28.32 -14 29 C-14.66 29 -15.32 29 -16 29 C-15.41098089 25.71729591 -14.38176788 23.99329724 -12.125 21.5625 C-6.68033036 15.43239689 -2.59440267 7.78320801 0 0 Z " fill="#09A199" transform="translate(434,375)"/>
<path d="M0 0 C0 0.99 0 1.98 0 3 C-0.66 3 -1.32 3 -2 3 C-2.66 4.32 -3.32 5.64 -4 7 C-4.99 7 -5.98 7 -7 7 C-7.33 7.99 -7.66 8.98 -8 10 C-11.44444444 13 -11.44444444 13 -14 13 C-14.33 13.99 -14.66 14.98 -15 16 C-16.5234375 17.421875 -16.5234375 17.421875 -18.375 18.75 C-18.98085938 19.19859375 -19.58671875 19.6471875 -20.2109375 20.109375 C-22 21 -22 21 -25 20 C-23.71034824 18.62437146 -22.37310707 17.29233607 -21 16 C-20.34 16 -19.68 16 -19 16 C-19 15.34 -19 14.68 -19 14 C-17.56640625 12.7734375 -17.56640625 12.7734375 -15.5625 11.375 C-11.39096081 8.37089691 -7.64397312 5.03812133 -3.8828125 1.5390625 C-2 0 -2 0 0 0 Z " fill="#09A29A" transform="translate(385,303)"/>
<path d="M0 0 C0.99 0.66 1.98 1.32 3 2 C2.0925 2.598125 1.185 3.19625 0.25 3.8125 C-1.62048902 5.071483 -3.47023088 6.36573513 -5.25 7.75 C-7 9 -7 9 -9 9 C-9 9.66 -9 10.32 -9 11 C-11.265625 12.76171875 -11.265625 12.76171875 -14.25 14.6875 C-15.22453125 15.33074219 -16.1990625 15.97398437 -17.203125 16.63671875 C-20 18 -20 18 -22.359375 17.70703125 C-22.90078125 17.47371094 -23.4421875 17.24039062 -24 17 C-16.02884665 11.29155156 -8.04787518 5.60013434 0 0 Z M-26 18 C-25.01 18.495 -25.01 18.495 -24 19 C-24.99 19.495 -24.99 19.495 -26 20 C-26 19.34 -26 18.68 -26 18 Z " fill="#08A298" transform="translate(358,324)"/>
<path d="M0 0 C0.66 0.99 1.32 1.98 2 3 C1.22066794 5.39516725 0.38298481 7.48982271 -0.6875 9.75 C-1.22761719 10.94109375 -1.76773438 12.1321875 -2.32421875 13.359375 C-2.59927246 13.95298828 -2.87432617 14.54660156 -3.15771484 15.15820312 C-4.49471981 18.08178732 -5.74421339 21.04074454 -7 24 C-7.66 24 -8.32 24 -9 24 C-7.42596813 15.23926997 -4.04378076 7.88537249 0 0 Z " fill="#08A39A" transform="translate(256,298)"/>
<path d="M0 0 C6.75072692 7.98330346 6.27397174 18.75967338 5.50878906 28.61401367 C5.35269275 30.41056656 5.17837326 32.20552199 5 34 C4.67 34 4.34 34 4 34 C3.97421875 32.92363281 3.9484375 31.84726562 3.921875 30.73828125 C3.61865312 22.11627596 2.7647163 14.77670147 -0.2578125 6.63671875 C-1.02954872 3.89502428 -0.98614577 2.62764158 0 0 Z " fill="#06A197" transform="translate(461,341)"/>
<path d="M0 0 C0.33 0 0.66 0 1 0 C0.25 6.625 0.25 6.625 -2 10 C-2.4640625 11.670625 -2.4640625 11.670625 -2.9375 13.375 C-3.92154663 16.73233556 -4.950695 19.18220563 -7 22 C-7.66 22 -8.32 22 -9 22 C-7.3706643 17.00090184 -5.68436667 12.02176941 -3.9375 7.0625 C-3.61652344 6.14597656 -3.29554688 5.22945313 -2.96484375 4.28515625 C-2 2 -2 2 0 0 Z " fill="#08A399" transform="translate(267,272)"/>
<path d="M0 0 C2.5 1.375 2.5 1.375 5 3 C5 3.66 5 4.32 5 5 C5.556875 5.20625 6.11375 5.4125 6.6875 5.625 C10.7748058 8.05528993 13.50461882 11.51385646 15 16 C10.67495164 14.34136495 7.90581175 11.128959 4.75 7.875 C4.19570313 7.31167969 3.64140625 6.74835938 3.0703125 6.16796875 C1.70895515 4.78313972 0.35385141 3.39216796 -1 2 C-0.67 1.34 -0.34 0.68 0 0 Z " fill="#08A8A0" transform="translate(327,467)"/>
<path d="M0 0 C6.93 0 13.86 0 21 0 C21 0.99 21 1.98 21 3 C13.74 3 6.48 3 -1 3 C-0.67 2.01 -0.34 1.02 0 0 Z " fill="#0AA59C" transform="translate(341,127)"/>
<path d="M0 0 C0.66 0 1.32 0 2 0 C2.81674796 1.74802146 3.62823451 3.49850189 4.4375 5.25 C5.11619141 6.71179688 5.11619141 6.71179688 5.80859375 8.203125 C6.78382356 10.49251695 7.4974274 12.57378746 8 15 C5.08562867 13.9515752 4.10163569 13.16930573 2.48046875 10.46875 C1.84044922 8.99921875 1.84044922 8.99921875 1.1875 7.5 C0.74792969 6.5203125 0.30835938 5.540625 -0.14453125 4.53125 C-0.42683594 3.6959375 -0.70914063 2.860625 -1 2 C-0.67 1.34 -0.34 0.68 0 0 Z " fill="#0AA39B" transform="translate(214,382)"/>
<path d="M0 0 C3.33727786 1.17255709 5.77437487 2.18868404 8 5 C8 5.66 8 6.32 8 7 C9.32 7.66 10.64 8.32 12 9 C11.67 10.32 11.34 11.64 11 13 C10.7525 12.38125 10.505 11.7625 10.25 11.125 C8.73970696 8.55750184 7.63908792 8.28184271 5 7 C2.25 4.5 2.25 4.5 0 2 C0 1.34 0 0.68 0 0 Z " fill="#0AA49D" transform="translate(251,434)"/>
<path d="M0 0 C1.32 0.33 2.64 0.66 4 1 C4 1.66 4 2.32 4 3 C4.86625 3.3403125 4.86625 3.3403125 5.75 3.6875 C8.5663661 5.33038023 10.08077114 7.39533227 12 10 C11.34 10.66 10.68 11.32 10 12 C9.67 11.01 9.34 10.02 9 9 C8.4225 8.731875 7.845 8.46375 7.25 8.1875 C3.93273179 6.43671956 2.27522628 3.97043431 0 1 C0 0.67 0 0.34 0 0 Z " fill="#0BA59D" transform="translate(272,455)"/>
<path d="M0 0 C-4.85689937 3.19167673 -9.59252902 5.85954274 -15 8 C-13.57106495 4.41229749 -11.98491303 3.03489404 -8.625 1.1875 C-7.85414063 0.74792969 -7.08328125 0.30835938 -6.2890625 -0.14453125 C-3.68898395 -1.11623296 -2.56007809 -0.95272312 0 0 Z " fill="#0AA099" transform="translate(287,338)"/>
<path d="M0 0 C1.09570312 0.00902344 2.19140625 0.01804688 3.3203125 0.02734375 C4.16335938 0.03894531 5.00640625 0.05054688 5.875 0.0625 C5.875 0.7225 5.875 1.3825 5.875 2.0625 C1.15185687 2.83362541 -3.34021178 3.16014874 -8.125 3.0625 C-8.125 2.4025 -8.125 1.7425 -8.125 1.0625 C-5.36047967 -0.31976016 -3.0788637 -0.03275387 0 0 Z " fill="#05B7B0" transform="translate(351.125,156.9375)"/>
<path d="M0 0 C-1.03491649 2.82249951 -1.69915265 3.83374226 -4.375 5.3125 C-7.16653942 6.04361747 -8.30861211 5.79596365 -11 5 C-9.54462432 4.16151196 -8.08559627 3.32936066 -6.625 2.5 C-5.81289063 2.0359375 -5.00078125 1.571875 -4.1640625 1.09375 C-2 0 -2 0 0 0 Z " fill="#06A498" transform="translate(281,373)"/>
<path d="M0 0 C2.475 0.495 2.475 0.495 5 1 C5 1.66 5 2.32 5 3 C6.32 3.66 7.64 4.32 9 5 C8.01 5.66 7.02 6.32 6 7 C4.02 4.69 2.04 2.38 0 0 Z " fill="#09A79F" transform="translate(293,435)"/>
<path d="M0 0 C2.475 0.495 2.475 0.495 5 1 C5 1.66 5 2.32 5 3 C6.32 3.66 7.64 4.32 9 5 C8.01 5.66 7.02 6.32 6 7 C4.02 4.69 2.04 2.38 0 0 Z " fill="#09A89F" transform="translate(276,418)"/>
<path d="M0 0 C-1 3 -1 3 -3.3125 4.75 C-6.32190521 6.14972335 -6.98041673 5.95287489 -10 5 C-8.71186658 4.16121545 -7.41936744 3.32913217 -6.125 2.5 C-5.40570313 2.0359375 -4.68640625 1.571875 -3.9453125 1.09375 C-2 0 -2 0 0 0 Z " fill="#09A59C" transform="translate(333,160)"/>
<path d="M0 0 C1.9375 0.8125 1.9375 0.8125 4 2 C4.33 2.99 4.66 3.98 5 5 C5.99 5.33 6.98 5.66 8 6 C6.68 6.33 5.36 6.66 4 7 C3.34 5.68 2.68 4.36 2 3 C1.34 3 0.68 3 0 3 C0 2.01 0 1.02 0 0 Z " fill="#0BA69C" transform="translate(313,495)"/>
<path d="M0 0 C-0.66 0 -1.32 0 -2 0 C-2 0.66 -2 1.32 -2 2 C-4.64 2.33 -7.28 2.66 -10 3 C-10 2.34 -10 1.68 -10 1 C-3.71428571 -1.42857143 -3.71428571 -1.42857143 0 0 Z " fill="#07A59D" transform="translate(345,158)"/>
<path d="M0 0 C0.66 0.66 1.32 1.32 2 2 C0.37660195 3.70884005 -1.29319053 5.37446717 -3 7 C-3.66 7 -4.32 7 -5 7 C-5 6.01 -5 5.02 -5 4 C-2.5 1.8125 -2.5 1.8125 0 0 Z " fill="#099E97" transform="translate(394,293)"/>
</svg>
