<?xml version="1.0" encoding="UTF-8"?>
<svg version="1.1" xmlns="http://www.w3.org/2000/svg" width="480" height="480">
<path d="M0 0 C0.82419434 0.11778809 1.64838867 0.23557617 2.49755859 0.35693359 C5.08341688 0.72731022 7.66703727 1.10996444 10.25 1.5 C11.03705322 1.61835205 11.82410645 1.7367041 12.63500977 1.85864258 C16.93885853 2.54574907 20.87816073 3.53856639 25 5 C26.30734372 5.2947191 27.61996773 5.56731506 28.9375 5.8125 C35.80008005 7.29939234 42.3964837 9.64564961 49 12 C50.07096924 12.38115967 50.07096924 12.38115967 51.16357422 12.77001953 C67.53007722 18.67441378 82.33880066 26.68047794 97 36 C98.05960937 36.65484375 99.11921875 37.3096875 100.2109375 37.984375 C101.21382813 38.60828125 102.21671875 39.2321875 103.25 39.875 C104.14203125 40.42929687 105.0340625 40.98359375 105.953125 41.5546875 C108 43 108 43 109 45 C109.99 45.33 110.98 45.66 112 46 C112 46.66 112 47.32 112 48 C112.57234375 48.268125 113.1446875 48.53625 113.734375 48.8125 C116.07884634 50.04132636 118.12404938 51.42522176 120.25 53 C121.30960937 53.7734375 121.30960937 53.7734375 122.390625 54.5625 C122.92171875 55.036875 123.4528125 55.51125 124 56 C124 56.66 124 57.32 124 58 C125.32 58.66 126.64 59.32 128 60 C128 60.66 128 61.32 128 62 C128.556875 62.226875 129.11375 62.45375 129.6875 62.6875 C132.6469509 64.36718835 134.66126784 66.54133285 137 69 C137.598125 69.556875 138.19625 70.11375 138.8125 70.6875 C140 72 140 72 140 74 C141.32 74.66 142.64 75.32 144 76 C144 76.66 144 77.32 144 78 C144.66 78 145.32 78 146 78 C147.9453125 80.1171875 147.9453125 80.1171875 150.125 82.875 C150.84945313 83.77992187 151.57390625 84.68484375 152.3203125 85.6171875 C154 88 154 88 154 90 C154.66 90 155.32 90 156 90 C156.33 90.99 156.66 91.98 157 93 C157.98014762 94.01946586 158.98315646 95.01713214 160 96 C165.8126235 103.49019079 170.45851531 111.70356755 175 120 C175.3904248 120.71236816 175.78084961 121.42473633 176.18310547 122.15869141 C177.40147996 124.39294724 178.60916991 126.63260939 179.8125 128.875 C180.18552246 129.56408447 180.55854492 130.25316895 180.94287109 130.96313477 C183.36555099 135.52887006 185.25797665 140.1391606 187 145 C187.61905419 146.52326325 188.2431916 148.04448248 188.875 149.5625 C196.35948034 168.27370084 200.48808158 187.07048073 203 207 C203.17200928 208.24515381 203.34401855 209.49030762 203.52124023 210.77319336 C204.04585754 214.99939188 204.21121611 219.18584179 204.2734375 223.44140625 C204.28592026 224.23416458 204.29840302 225.02692291 204.31126404 225.84370422 C204.65147198 252.72863277 202.30924798 278.24409182 194 304 C193.68417969 305.02738281 193.36835938 306.05476563 193.04296875 307.11328125 C192.09239628 310.10252828 191.06673581 313.05014893 190 316 C189.64083496 316.99700928 189.64083496 316.99700928 189.27441406 318.01416016 C185.32851168 328.85935453 180.67403154 338.9576764 175 349 C173.99961675 350.8122885 172.99955211 352.62475296 172 354.4375 C171.33473501 355.62578582 170.66872424 356.81365748 170 358 C169.34 358 168.68 358 168 358 C167.88527344 358.57234375 167.77054687 359.1446875 167.65234375 359.734375 C166.93817644 362.21471656 165.92692128 364.06368697 164.5625 366.25 C163.91474609 367.30960937 163.91474609 367.30960937 163.25390625 368.390625 C162.84011719 368.92171875 162.42632812 369.4528125 162 370 C161.34 370 160.68 370 160 370 C159.89421631 370.57975586 159.78843262 371.15951172 159.67944336 371.75683594 C158.89930811 374.33243159 157.82007344 375.80544716 156.12890625 377.890625 C155.55462891 378.59960938 154.98035156 379.30859375 154.38867188 380.0390625 C153.78603516 380.76867187 153.18339844 381.49828125 152.5625 382.25 C151.96373047 382.99507813 151.36496094 383.74015625 150.74804688 384.5078125 C147.41206687 388.58719678 147.41206687 388.58719678 146 390 C145.34 390 144.68 390 144 390 C143.95875 390.556875 143.9175 391.11375 143.875 391.6875 C142.79059423 394.55342954 141.05764508 395.73353835 138.68359375 397.578125 C136.2886577 399.60076241 134.38492256 401.95272315 132.37890625 404.3515625 C130.68469159 406.37694094 129.00232635 408.27385659 127 410 C126.01 410 125.02 410 124 410 C123.81179688 410.54269531 123.62359375 411.08539063 123.4296875 411.64453125 C121.31479018 415.12891125 118.32852723 417.22450299 115.125 419.6875 C114.18720703 420.43483398 114.18720703 420.43483398 113.23046875 421.19726562 C110.14944981 423.59759433 107.89143511 425.23350521 104 426 C104 426.66 104 427.32 104 428 C98.79882911 432.26367589 92.64004531 435.36372935 86.7265625 438.5078125 C84.22613751 439.87623993 81.84189184 441.34643474 79.4375 442.875 C68.80067147 449.33186077 56.77321936 454.06403417 45 458 C44.01193359 458.33922485 44.01193359 458.33922485 43.00390625 458.68530273 C-3.32714934 474.44126833 -55.40500016 475.01616162 -102 460 C-103.03898438 459.68417969 -104.07796875 459.36835938 -105.1484375 459.04296875 C-126.95336365 452.17412472 -146.91423177 441.43898327 -166 429 C-166.66386719 428.58621094 -167.32773438 428.17242187 -168.01171875 427.74609375 C-169.37633367 426.88406428 -170.69615717 425.95145287 -172 425 C-172 424.34 -172 423.68 -172 423 C-172.70511719 422.7628125 -173.41023438 422.525625 -174.13671875 422.28125 C-177.50286868 420.77497827 -179.96983173 418.84415483 -182.8125 416.5 C-183.78832031 415.7059375 -184.76414062 414.911875 -185.76953125 414.09375 C-186.50558594 413.4028125 -187.24164063 412.711875 -188 412 C-188 411.34 -188 410.68 -188 410 C-188.86625 409.60941406 -188.86625 409.60941406 -189.75 409.2109375 C-193.66124209 407.10592874 -196.73749957 403.98171146 -200 401 C-201.2375 399.88625 -201.2375 399.88625 -202.5 398.75 C-204 397 -204 397 -204 394 C-205.32 393.34 -206.64 392.68 -208 392 C-208 391.34 -208 390.68 -208 390 C-208.99 389.67 -209.98 389.34 -211 389 C-212.82421875 387.00390625 -212.82421875 387.00390625 -214.6875 384.5625 C-215.62142578 383.35787109 -215.62142578 383.35787109 -216.57421875 382.12890625 C-218 380 -218 380 -218 378 C-218.66 378 -219.32 378 -220 378 C-220.103125 377.360625 -220.20625 376.72125 -220.3125 376.0625 C-220.539375 375.381875 -220.76625 374.70125 -221 374 C-221.99 373.67 -222.98 373.34 -224 373 C-225.05589069 371.36816893 -226.0436126 369.69207001 -227 368 C-227.763125 366.96875 -228.52625 365.9375 -229.3125 364.875 C-232.69144942 360.17646086 -235.30233782 355.11044194 -238 350 C-238.83284743 348.44895774 -239.66622107 346.89819797 -240.5 345.34765625 C-241.39633429 343.66953831 -242.29216515 341.99115138 -243.1875 340.3125 C-243.61571045 339.51682617 -244.0439209 338.72115234 -244.48510742 337.90136719 C-247.06816762 333.02591069 -249.15197737 328.19859185 -251 323 C-251.61905419 321.47673675 -252.2431916 319.95551752 -252.875 318.4375 C-256.51543502 309.35041413 -259.94638398 300.02852796 -261.54296875 290.34375 C-261.97814671 287.87923874 -261.97814671 287.87923874 -262.91796875 285.08203125 C-274.8418549 243.99200188 -269.39152371 194.22925266 -254.67871094 154.84521484 C-254.09447075 153.25683811 -253.54746153 151.65485611 -253.0078125 150.05078125 C-250.39844655 142.32659619 -246.73135263 135.18706916 -243.00073242 127.95825195 C-241.97498669 125.95105349 -240.9815438 123.9296877 -239.98828125 121.90625 C-237.05699061 116.03294972 -233.48814179 110.55374531 -230 105 C-229.33871094 103.92878906 -228.67742187 102.85757813 -227.99609375 101.75390625 C-227.37863281 100.76261719 -226.76117188 99.77132812 -226.125 98.75 C-225.57070312 97.85796875 -225.01640625 96.9659375 -224.4453125 96.046875 C-223 94 -223 94 -221 93 C-220.505 91.515 -220.505 91.515 -220 90 C-218.35329129 88.31361156 -216.68343988 86.64972292 -215 85 C-212.61735994 82.11041524 -210.3026047 79.17491052 -207.98828125 76.23046875 C-207.33214844 75.49441406 -206.67601562 74.75835937 -206 74 C-205.34 74 -204.68 74 -204 74 C-203.01 72.02 -203.01 72.02 -202 70 C-201.34 70 -200.68 70 -200 70 C-199.01 68.02 -199.01 68.02 -198 66 C-197.34 66 -196.68 66 -196 66 C-195.01 64.02 -195.01 64.02 -194 62 C-193.34 62 -192.68 62 -192 62 C-191.80535156 61.44570312 -191.61070312 60.89140625 -191.41015625 60.3203125 C-189.40938139 57.0281788 -186.50539638 55.1007935 -183.4375 52.875 C-179.10895906 49.99345776 -179.10895906 49.99345776 -176 46 C-174.35178756 44.96986723 -172.67888441 43.97934924 -171 43 C-168.6535164 41.41541436 -166.31793457 39.81625396 -163.98828125 38.20703125 C-162 37 -162 37 -160 37 C-160 36.34 -160 35.68 -160 35 C-158.390625 33.7109375 -158.390625 33.7109375 -156.25 32.375 C-155.20585937 31.70597656 -155.20585937 31.70597656 -154.140625 31.0234375 C-152 30 -152 30 -148 30 C-148 29.34 -148 28.68 -148 28 C-146.18385409 27.09192705 -144.3675721 26.18412568 -142.55078125 25.27734375 C-140.71279549 24.35694353 -138.87713581 23.43189302 -137.04296875 22.50390625 C-95.08311027 1.33924807 -46.61086072 -7.01814209 0 0 Z M-65 95 C-65.67933594 95.36867188 -66.35867187 95.73734375 -67.05859375 96.1171875 C-83.82300308 105.89923721 -95.99943673 120.83993433 -101.390625 139.50390625 C-105.34615106 154.84061941 -106.43605814 173.43138917 -98.45703125 187.7734375 C-97.97621094 188.50820312 -97.49539062 189.24296875 -97 190 C-96 192.33333333 -95 194.66666667 -94 197 C-92.16214554 200.67960711 -92.16214554 200.67960711 -89 203 C-88.67 203.99 -88.34 204.98 -88 206 C-86.40086018 207.58697631 -86.40086018 207.58697631 -84.5 209.0625 C-81.09948542 211.80102916 -81.09948542 211.80102916 -80 214 C-78.515 214.495 -78.515 214.495 -77 215 C-75.98620889 215.98601601 -74.98767094 216.9878211 -74 218 C-63.40768655 225.70153952 -50.13162009 230.90258442 -37 231 C-36.04867187 231.03738281 -35.09734375 231.07476562 -34.1171875 231.11328125 C-16.81769794 231.54238086 -2.32447651 226.65503765 12 217 C12.33 216.34 12.66 215.68 13 215 C13.99 214.67 14.98 214.34 16 214 C17.58697631 212.40086018 17.58697631 212.40086018 19.0625 210.5 C21.80102916 207.09948542 21.80102916 207.09948542 24 206 C24.33 205.01 24.66 204.02 25 203 C26 202 27 201 28 200 C39.10329705 184.73296655 42.01266176 165.4067066 40 147 C38.3963955 137.94552353 34.82944457 129.79489299 30 122 C29.32037556 120.67322464 28.64999402 119.34154016 28 118 C27.34 118 26.68 118 26 118 C25.65195312 116.91912109 25.65195312 116.91912109 25.296875 115.81640625 C22.03970952 108.74286315 14.60869205 102.8790149 8 99 C7.11441406 98.40638672 7.11441406 98.40638672 6.2109375 97.80078125 C-14.46390311 84.08619574 -43.28839979 82.89369871 -65 95 Z M-101 231 C-102.10021484 231.51820313 -102.10021484 231.51820313 -103.22265625 232.046875 C-107.2382513 233.99479785 -111.03436897 236.17041979 -114.7890625 238.58203125 C-116.43858459 239.63994029 -118.10249739 240.67547375 -119.7734375 241.69921875 C-124.74516992 244.77156278 -129.01318668 247.68095224 -133 252 C-134.11647216 252.94763979 -135.24226732 253.88435781 -136.375 254.8125 C-154.51246563 270.1959036 -167.45869693 294.33110464 -169.75390625 317.8984375 C-170.95253176 334.00520717 -167.89686228 349.0316977 -158 362 C-157.34 362 -156.68 362 -156 362 C-155.34 363.32 -154.68 364.64 -154 366 C-153.34 366 -152.68 366 -152 366 C-151.80277344 366.57621094 -151.60554688 367.15242187 -151.40234375 367.74609375 C-149.44333933 370.8946886 -146.72126457 372.30537373 -143.5625 374.0625 C-142.71268555 374.57006836 -142.71268555 374.57006836 -141.84570312 375.08789062 C-130.78796715 381.36324683 -119.24038759 381.43936244 -106.88330078 381.40405273 C-105.07027772 381.40976427 -103.25725826 381.41673155 -101.44424438 381.42485046 C-96.54743248 381.44271104 -91.65080048 381.44162683 -86.75396585 381.43590808 C-82.65383469 381.43280572 -78.55373756 381.43892034 -74.45361125 381.44494683 C-64.77454636 381.45896733 -55.09556978 381.45745158 -45.41650391 381.44604492 C-35.45817069 381.43456789 -25.50010692 381.44863811 -15.5418092 381.4754414 C-6.96648908 381.49765122 1.60874678 381.50422384 10.18409359 381.49836498 C15.29455658 381.49500662 20.40484692 381.49733554 25.51528549 381.51461601 C30.32371396 381.53016736 35.13174559 381.5260394 39.94015884 381.50731087 C41.69561949 381.50364746 43.45111008 381.50666713 45.20654297 381.51719666 C59.03337958 381.59374363 71.18119483 379.79910064 83 372 C83.74894531 371.50886719 84.49789062 371.01773438 85.26953125 370.51171875 C96.68218413 362.36537879 102.5263133 350.96586366 105.42578125 337.51171875 C108.06837012 321.35058 104.61480206 304.78480837 98 290 C97.68160156 289.27683594 97.36320312 288.55367188 97.03515625 287.80859375 C94.68517082 282.81613543 91.68605947 278.23400243 88.68359375 273.61328125 C87.56428741 271.87588927 86.4891324 270.10922325 85.4609375 268.31640625 C83.85910861 265.77660804 81.95742741 264.23062528 79.61328125 262.38671875 C77.26013333 260.36403712 75.36261681 258.02187629 73.37890625 255.64453125 C69.83493598 251.40747126 69.83493598 251.40747126 65 249 C64.01 247.515 64.01 247.515 63 246 C62.01 246 61.02 246 60 246 C60 245.34 60 244.68 60 244 C53.75408186 239.04292211 46.39497231 234.87706723 39.03515625 231.859375 C35.43012168 230.33709553 31.90000938 228.64565956 28.35546875 226.98828125 C26.1183578 225.87103517 26.1183578 225.87103517 24 226 C22.65514824 227.32171453 21.32382686 228.6572275 20 230 C12.5720381 235.54307006 4.70956264 238.978315 -4 242 C-4.804375 242.309375 -5.60875 242.61875 -6.4375 242.9375 C-24.21264879 249.53969812 -48.8569458 247.20840015 -66 240 C-68.96288912 238.46979904 -71.854852 236.87318618 -74.72265625 235.171875 C-77.01772925 233.77122261 -77.01772925 233.77122261 -80 234 C-80 233.34 -80 232.68 -80 232 C-83.63323689 229.03764305 -83.63323689 229.03764305 -88 228 C-88 227.34 -88 226.68 -88 226 C-92.48318879 226 -97.00700538 229.1145697 -101 231 Z " fill="#737373" transform="translate(272,6)"/>
</svg>
